<?xml version="1.0" standalone="no"?>
<!DOCTYPE svg PUBLIC "-//W3C//DTD SVG 1.1//EN" "http://www.w3.org/Graphics/SVG/1.1/DTD/svg11.dtd" >
<svg xmlns="http://www.w3.org/2000/svg" xmlns:xlink="http://www.w3.org/1999/xlink" version="1.1">
<metadata>
Created by FontForge 20170731 at Sun Jan 26 19:14:35 2020
 By Aleksey,,,
</metadata>
<defs>
<font id="tripadvisor" horiz-adv-x="1034" >
  <font-face 
    font-family="tripadvisor"
    font-weight="400"
    font-stretch="normal"
    units-per-em="1024"
    panose-1="0 0 0 0 0 0 0 0 0 0"
    ascent="960"
    descent="-64"
    bbox="10 -64 1034 960"
    underline-thickness="0"
    underline-position="0"
    unicode-range="U+0001-FFFD"
  />
<missing-glyph horiz-adv-x="1024" 
 />
    <glyph glyph-name=".notdef" unicode="&#xfffd;" horiz-adv-x="1024" 
 />
    <glyph glyph-name="glyph1" horiz-adv-x="0" 
d="M0 0v0v0v0z" />
    <glyph glyph-name="glyph1" horiz-adv-x="0" 
d="M0 0v0v0v0z" />
    <glyph glyph-name="nonmarkingreturn" horiz-adv-x="341" 
 />
    <glyph glyph-name="uni0001" horiz-adv-x="0" 
d="M0 0v0v0v0z" />
    <glyph glyph-name="space" unicode=" " horiz-adv-x="512" 
d="M0 0v0v0v0z" />
    <glyph glyph-name="uniE900" unicode="&#xe900;" 
d="M202 619q9 0 15 -6q6 -7 6 -16v-298q0 -9 -6 -15q-6 -7 -15 -7h-43q-8 0 -14 6q-7 7 -7 16v106h-21q-9 0 -15 6q-7 7 -7 16v42q0 9 6 15q7 7 16 7h21v106q0 9 6 15q7 7 15 7h43zM757 704q8 0 14 -6q7 -7 7 -15v-470q0 -8 -6 -14q-7 -7 -15 -7h-43q-9 0 -15 6q-6 7 -6 15
v192h-342v-192q0 -8 -6 -14q-6 -7 -15 -7h-43q-8 0 -14 6q-7 7 -7 15v470q0 8 6 14q7 7 15 7h43q9 0 15 -6q6 -7 6 -15v-192h342v192q0 8 6 14q6 7 15 7h43zM927 491q9 0 15 -6q7 -7 7 -16v-42q0 -9 -6 -15q-7 -7 -16 -7h-21v-106q0 -9 -6 -15q-7 -7 -15 -7h-43q-9 0 -15 6
q-6 7 -6 16v298q0 9 6 15q6 7 15 7h43q8 0 14 -6q7 -7 7 -16v-106h21z" />
    <glyph glyph-name="uniE901" unicode="&#xe901;" 
d="M96 64v107h854v-107q0 -21 -22 -21h-810q-22 0 -22 21zM96 256v128h854v-128h-854zM950 469h-854q-2 8 -2 16q0 17 11 23l580 341q4 4 13 4h4q92 -26 170 -139q78 -114 78 -237v-8zM702 759l-350 -204h500q-34 131 -150 204z" />
    <glyph glyph-name="uniE902" unicode="&#xe902;" 
d="M614 267q-9 -9 -22 -5h-145q-8 0 -17 9l-200 290q-4 3 -4 10q0 8 4 11q49 68 123 107q75 39 158 39h7q4 -1 6 -1q87 -3 163 -40q77 -38 131 -105q10 -8 0 -25zM865 518q82 -95 82 -222q0 -11 -1 -17q0 -42 -13 -72q-6 -19 -22 -29q-17 -10 -37 -10q-27 0 -179 94z
M183 518l170 -256q-152 -94 -179 -94q-46 0 -60 39q-17 35 -17 77q0 136 86 234z" />
    <glyph glyph-name="uniE903" unicode="&#xe903;" 
d="M943 206l-179 -175q-7 -7 -18 -7q-10 0 -20 7l-175 175q-7 6 -7 17t7 17l25 26q8 6 17 6q11 0 17 -6l94 -94v273q0 10 8 17q8 8 18 8h34q10 0 18 -7q8 -8 8 -18v-273l94 94q6 6 17 6q10 0 17 -6l25 -26q7 -6 7 -17t-7 -17zM759 689q0 17 -12 29q-13 13 -31 13t-30 -12
q-13 -13 -13 -30q0 -18 12 -30q13 -13 31 -13t30 12q13 13 13 31zM500 219q0 -31 21 -52l21 -17l-81 -81q-6 -6 -15 -6q-8 0 -15 6l-332 333q-9 16 0 30l435 435q4 5 17 5l303 -22q21 -6 21 -21l30 -307q2 -11 -4 -17l-69 -69v9q0 29 -19 48q-20 20 -49 20h-34
q-28 0 -48 -20t-20 -48v-171l-17 17q-22 19 -51 19t-47 -19l-26 -25q-21 -21 -21 -47z" />
    <glyph glyph-name="uniE904" unicode="&#xe904;" 
d="M181 448q0 -141 100 -241q101 -100 242 -100v-86q-173 0 -303 124q-125 124 -125 303t125 303l-81 81h213v-213l-68 68q-48 -45 -75 -108q-28 -64 -28 -131zM544 661q21 0 21 -21v-243q0 -13 -4 -17l-119 -120q-8 -6 -15 -6q-9 0 -15 6l-30 30q-7 7 -7 15t7 15l94 94
q0 2 2 8q2 7 2 9v209q0 21 21 21h43zM864 448q0 141 -100 241q-101 100 -241 100v86q176 0 301 -125q125 -126 125 -302h-85zM894 363l55 -60l-247 -260l-137 145l60 59l77 -85z" />
    <glyph glyph-name="uniE905" unicode="&#xe905;" 
d="M850 690q43 -16 70 -54t27 -85q0 -62 -43 -105q-44 -44 -106 -44h-640q-10 0 -15 6q-5 7 -6 14q-1 8 -1 23v10q0 17 4 24q4 8 18 8h640q38 0 56 34q8 14 8 30q0 37 -34 56q22 36 22 77v6zM757 338q62 0 105 -43q44 -44 44 -106t-43 -105q-44 -44 -106 -44q-61 0 -105 43
q-44 44 -44 106q0 14 8 17q8 4 24 4h11h22q8 -1 14 -6q7 -5 7 -15q0 -26 18 -45q19 -19 46 -19q26 0 45 19t19 45t-19 45t-45 19h-641q-14 0 -17 7q-4 8 -4 24v24q0 16 3 23q4 7 18 7h640zM638 555h-439q-13 0 -17 7t-4 23v24q0 31 21 31h439q26 0 45 19t19 45t-19 45
t-45 19t-45 -19t-19 -45q0 -10 -6 -15q-7 -5 -14 -5q-8 -1 -23 -1h-10q-17 0 -24 3q-8 4 -8 18q0 62 43 105q44 44 106 44t105 -44q44 -44 44 -105q0 -62 -43 -105q-44 -44 -106 -44z" />
    <glyph glyph-name="uniE906" unicode="&#xe906;" 
d="M202 619q10 0 21 -3q8 56 50 93q42 38 98 38h1h8q6 -1 10 -1q5 -1 9 -2q14 58 61 94t105 36q18 0 41 -5q47 -12 81 -47t44 -83q26 8 47 8q70 0 120 -50q51 -50 51 -121t-50 -121q-51 -50 -121 -50h-597q-38 9 -62 39t-24 68q0 44 31 75q32 31 76 32zM799 339
q62 0 106 -44t44 -106t-43 -105q-44 -44 -106 -44t-106 43q-44 44 -44 106q0 22 32 22h11q15 0 22 -1q8 -1 14 -6q7 -5 7 -15q0 -26 18 -45q19 -19 46 -19q26 0 45 19t19 45q0 27 -19 45q-19 19 -45 19h-577q-21 0 -21 31v24q0 31 21 31h576z" />
    <glyph glyph-name="uniE907" unicode="&#xe907;" 
d="M842 619q44 0 75 -31q32 -32 32 -76q0 -38 -24 -68t-62 -39h-597q-70 0 -120 50q-51 50 -51 121t50 121q51 50 121 50q27 -2 47 -8q10 48 44 83t81 47q23 5 41 5q58 0 105 -36t61 -94q1 0 26 3q56 -1 98 -38q43 -37 50 -93q12 3 23 3zM762 211q-5 0 -8 2q-11 8 -5 19
l35 85q8 20 30 22h43q9 0 12 -6q4 -7 0 -16l-34 -85q-8 -19 -30 -21h-43zM607 40q-8 0 -11 6q-4 7 -1 15l34 86q8 19 30 21h43q9 0 12 -6q4 -6 0 -15l-34 -86q-10 -19 -30 -21h-43zM437 40q-8 0 -12 6q-4 7 -1 15l34 86q10 19 30 21h43q20 0 13 -21l-35 -86q-8 -19 -30 -21
h-42zM266 40q-8 0 -12 6q-4 7 -1 15l35 86q8 19 30 21h42q10 0 13 -6q4 -6 0 -15l-34 -86q-10 -19 -30 -21h-43zM592 211q-6 0 -9 2q-11 7 -4 19l34 85q9 20 30 22h43q20 0 13 -22l-35 -85q-8 -19 -30 -21h-42zM421 211q-6 0 -8 2q-12 7 -5 19l35 85q8 20 30 22h42
q10 0 13 -6q4 -7 0 -16l-35 -85q-8 -19 -29 -21h-43zM250 211q-5 0 -8 2q-11 8 -5 19l35 85q8 20 30 22h43q9 0 12 -6q4 -7 0 -16l-34 -85q-8 -19 -30 -21h-43z" />
    <glyph glyph-name="uniE908" unicode="&#xe908;" 
d="M842 619q44 0 75 -31q32 -32 32 -76q0 -38 -24 -68t-62 -39h-597q-70 0 -120 50q-51 50 -51 121t50 121q51 50 121 50q27 -2 47 -8q10 48 44 83t81 47q23 5 41 5q58 0 105 -36t61 -94q1 0 26 3q56 -1 98 -38q43 -37 50 -93q12 3 23 3zM522 38h-11q-25 0 -25 12q0 5 2 9
l35 86h-95l69 170q9 22 41 22h20q26 0 26 -12q0 -6 -2 -10l-34 -85h95l-70 -171q-8 -21 -41 -21h-10zM735 38h-10q-26 0 -26 11q0 4 3 10l34 86h-94l68 170q10 22 41 22h21q26 0 26 -12q0 -2 -2 -10l-35 -85h95l-69 -171q-9 -21 -41 -21h-11zM309 38h-11q-26 0 -26 12
q0 3 3 9l34 86h-94l68 170q9 22 41 22h21q26 0 26 -12q0 -2 -2 -10l-34 -85h94l-69 -171q-11 -21 -42 -21h-9z" />
    <glyph glyph-name="uniE909" unicode="&#xe909;" 
d="M704 211q-8 0 -12 6q-4 7 -1 15l35 85q8 20 30 22h43q9 0 12 -6q4 -7 0 -16l-34 -85q-10 -19 -30 -21h-43zM632 40q-20 0 -13 21l35 85q8 20 30 22h42q10 0 13 -6q4 -7 0 -16l-34 -85q-10 -19 -30 -21h-43zM279 211q-9 0 -12 6q-4 6 -1 15l35 85q8 20 30 22h43q9 0 12 -6
q4 -7 0 -16l-34 -85q-10 -19 -30 -21h-43zM207 40q-20 0 -13 21l35 85q8 20 30 22h42q10 0 13 -6q4 -7 0 -16l-34 -85q-10 -19 -30 -21h-43zM841 619h1q44 0 75 -31q32 -32 32 -76q0 -38 -24 -68t-62 -39h-597q-70 0 -120 50q-51 50 -51 121t50 121q51 50 121 50
q27 -2 46 -8q11 48 44 83q34 35 81 47q23 5 42 5q58 0 104 -36q47 -36 61 -94q5 1 15 2t11 1q57 0 99 -37q42 -38 49 -94q12 3 23 3zM497 40h-10q-26 0 -26 11q0 2 2 10l35 86h-113l68 170q10 22 41 22h21q26 0 26 -12q0 -2 -2 -10l-34 -85h113l-70 -171q-9 -21 -40 -21h-11
z" />
    <glyph glyph-name="uniE90A" unicode="&#xe90a;" 
d="M839 619q44 0 75 -31q32 -32 32 -76q0 -38 -24 -68t-62 -39h-597q-71 0 -121 50t-50 121t50 121t121 50q21 -1 46 -8q10 49 44 84q35 36 83 47q23 5 40 5q59 0 105 -36q47 -37 61 -95q5 1 15 2t11 1q56 0 98 -37q43 -38 50 -94q1 0 23 3zM188 204q6 69 55 116
q48 -48 54 -116q0 -23 -15 -39q-16 -16 -39 -16t-39 16t-16 39zM743 204q6 68 54 116q49 -47 55 -116q0 -23 -16 -39t-39 -16t-38 16q-16 16 -16 39zM522 320q61 -61 69 -146q0 -29 -20 -49q-21 -20 -49 -20t-48 20q-21 20 -21 49q8 85 69 146z" />
    <glyph glyph-name="uniE90B" unicode="&#xe90b;" 
d="M819 616l23 3q44 0 75 -31q32 -32 32 -76q0 -38 -24 -68t-62 -39h-597q-70 0 -120 50q-51 50 -51 121t50 121q51 50 121 50q27 -2 46 -8q10 48 44 83q35 35 82 47q23 5 41 5q58 0 104 -36q47 -36 61 -94q4 1 8 1q5 1 10 1q6 1 9 1q56 -1 98 -38q43 -37 50 -93zM244 339
h43q9 0 15 -6q6 -7 6 -16v-85q0 -9 -6 -15t-15 -6h-43q-9 0 -15 6t-6 15v85q0 9 6 15q6 7 15 7zM330 168h42q9 0 15 -6q7 -6 7 -15v-86q0 -8 -6 -14q-7 -7 -16 -7h-42q-9 0 -15 6q-7 7 -7 15v86q0 9 6 15q7 6 16 6zM500 168h43q9 0 15 -6t6 -15v-86q0 -8 -6 -14
q-6 -7 -15 -7h-43q-9 0 -15 6q-6 7 -6 15v86q0 9 6 15t15 6zM671 168h43q8 0 14 -6q7 -6 7 -15v-86q0 -8 -6 -14q-7 -7 -15 -7h-43q-9 0 -15 6q-6 7 -6 15v86q0 9 6 15t15 6zM415 339h43q8 0 14 -6q7 -7 7 -16v-85q0 -9 -6 -15q-7 -6 -15 -6h-43q-9 0 -15 6t-6 15v85
q0 9 6 15q6 7 15 7zM586 339h42q9 0 15 -6q7 -7 7 -16v-85q0 -9 -6 -15q-7 -6 -16 -6h-42q-9 0 -15 6q-7 6 -7 15v85q0 9 6 15q7 7 16 7zM756 339h43q9 0 15 -6q6 -7 6 -16v-85q0 -9 -6 -15t-15 -6h-43q-9 0 -15 6t-6 15v85q0 9 6 15q6 7 15 7z" />
    <glyph glyph-name="uniE90C" unicode="&#xe90c;" 
d="M842 448q44 0 75 -31q32 -32 32 -76q0 -38 -24 -68t-62 -38h-597q-71 0 -121 50t-50 120q0 71 50 121t121 50q19 0 47 -7q10 47 44 82t81 47q23 5 41 5q58 0 105 -36t61 -94q13 3 26 3q56 0 98 -37q42 -38 50 -94q12 3 23 3zM539 736l-36 36q-9 9 0 17q18 19 19 20
q9 7 17 -1l36 -36q9 -9 0 -18l-18 -18q-9 -9 -18 0zM831 734l-18 18q-9 9 0 18l36 36q8 8 18 0l18 -19q9 -9 0 -17q-37 -36 -37 -37q-9 -7 -17 1zM885 644h53q11 0 11 -13v-27q-2 -11 -13 -11h-53q-13 2 -11 13v27q0 13 13 11zM705 798h-27q-11 0 -11 13v53q2 11 13 11h27
q13 -2 11 -13v-53q0 -13 -13 -11zM688 639q-24 49 -68 82q32 23 73 23q53 0 90 -37q38 -38 38 -92q0 -15 -5 -32q-55 51 -128 56z" />
    <glyph glyph-name="uniE90D" unicode="&#xe90d;" 
d="M842 405q44 0 75 -31q32 -31 32 -75q0 -39 -24 -69t-62 -38h-597q-71 0 -121 50t-50 121q0 70 50 120t121 50q25 0 46 -7q10 48 44 83q35 35 82 46q18 5 41 5q58 0 104 -36q47 -36 61 -93q18 2 27 2q56 0 98 -37t50 -93q14 2 23 2zM688 596q-27 53 -76 88v20q1 58 38 102
q38 45 94 59q-14 -36 -14 -71q0 -82 60 -139q61 -58 142 -58h1q-44 -51 -112 -60q-56 54 -133 59z" />
    <glyph glyph-name="uniE90E" unicode="&#xe90e;" 
d="M819 445l23 3q44 0 75 -31q32 -32 32 -76q0 -38 -24 -68t-62 -38h-597q-71 0 -121 50t-50 120q0 71 50 121t121 50q20 0 46 -7q10 47 44 82q35 35 82 47q23 5 41 5q58 0 104 -36q47 -36 61 -94q14 3 27 3q56 0 98 -37q42 -38 50 -94zM479 768q-42 0 -81 -15v10
q13 47 51 77q39 30 88 30h11q47 0 85 -27q38 -28 52 -73q12 2 23 0h7q44 0 78 -28t43 -71h27q34 0 59 -23t27 -57q-2 -32 -22 -55q-21 -23 -52 -27h-7l-3 3q-23 54 -70 88q-48 35 -107 40q-29 59 -85 93q-57 35 -123 35h-1z" />
    <glyph glyph-name="uniE90F" unicode="&#xe90f;" 
d="M842 448q44 0 75 -31q32 -32 32 -76q0 -38 -24 -68t-62 -38h-597q-71 0 -121 50t-50 120q0 71 50 121t121 50q19 0 47 -7q10 47 44 82t81 47q23 5 41 5q58 0 105 -36t61 -94q13 3 26 3h2q56 0 98 -36q42 -37 50 -92q11 1 21 0z" />
    <glyph glyph-name="uniE910" unicode="&#xe910;" 
d="M360 628q-26 -57 -27 -120q2 -140 100 -239t237 -102q-94 -103 -233 -103q-119 0 -190 53q-71 54 -109 156q-12 38 -12 79v6q5 100 70 175q66 76 164 95zM753 841l50 -101l112 -16l-81 -79l19 -110l-100 52l-99 -52l19 110l-81 79l112 16zM570 483l33 -67l75 -12l-54 -52
l13 -75l-67 35l-67 -35l13 75l-55 52l75 12z" />
    <glyph glyph-name="uniE911" unicode="&#xe911;" 
d="M863 875q35 0 60 -25q26 -25 26 -61q0 -47 -43 -73v-289q0 -22 -21 -22h-320v-225q43 -23 43 -73q0 -36 -25 -61t-60 -25t-60 25t-25 61q0 48 42 73v225h-256v-225q43 -24 43 -73q0 -36 -25 -61t-60 -25t-60 25q-26 25 -26 61q0 48 42 73v535q-43 26 -43 74q0 35 25 60
q26 25 61 25t60 -25t25 -60q0 -49 -42 -74v-224h256v225q-42 25 -42 73q0 35 25 60t60 25t60 -25t25 -60q0 -51 -43 -74v-224h256v225q-43 23 -43 73q0 36 25 61t60 25z" />
    <glyph glyph-name="uniE912" unicode="&#xe912;" 
d="M782 738l167 -162v-405q0 -22 -22 -22h-213q-21 0 -21 22v320h-86v-384h22q9 0 15 -6t6 -16v-64h-555v64q0 22 22 22h21v746q0 10 6 16t15 6h427q21 0 21 -22v-277h150q9 0 15 -6t6 -15v-320h85v307l-140 141q-7 3 -7 12q0 10 7 13l29 30q9 7 15 7q8 0 15 -7zM522 576
v213h-299v-213h299z" />
    <glyph glyph-name="uniE913" unicode="&#xe913;" 
d="M949 853v-810q0 -22 -22 -22h-810q-22 0 -22 22v482q0 2 2 8q3 7 3 9l328 328q2 0 8 2q7 3 9 3h482q22 0 22 -22zM223 533h640v256h-384zM735 448v-85h128v85h-128z" />
    <glyph glyph-name="uniE914" unicode="&#xe914;" 
d="M735 875q9 0 15 -8q7 -8 7 -18v-802q0 -10 -6 -18q-7 -8 -16 -8h-426q-22 0 -22 22v806q0 10 6 18q7 8 16 8h426zM501 149v86h-86v-86h86zM501 320v85h-86v-85h86zM501 491v85h-86v-85h86zM629 149v86h-86v-86h86zM629 320v85h-86v-85h86zM629 491v85h-86v-85h86z
M501 661v86h-86v-86h86zM629 661v86h-86v-86h86z" />
    <glyph glyph-name="uniE915" unicode="&#xe915;" 
d="M117 875h810q22 0 22 -22v-810q0 -22 -22 -22h-810q-22 0 -22 22v810q0 22 22 22zM778 363v170h-171v171h-170v-171h-171v-170h171v-171h170v171h171z" />
    <glyph glyph-name="uniE916" unicode="&#xe916;" 
d="M586 640q85 -46 85 -107v-490q0 -9 -7 -15q-8 -7 -18 -7h-248q-10 0 -17 6q-8 7 -8 16v490q0 59 81 107q13 0 13 17v196q0 9 7 15q8 7 18 7h56q9 0 17 -6q8 -7 8 -16v-196q0 -11 13 -17z" />
    <glyph glyph-name="uniE917" unicode="&#xe917;" 
d="M650 395h213q0 -23 -34 -38q-34 -16 -70 -23t-36 -8q-75 -89 -111 -157q-13 -22 -39 -22q-7 0 -21 4q-6 2 -33 31q-28 29 -53 57l-25 28v-226h-346v396q9 44 43 64q71 43 137 43q90 0 149 -47q15 -12 53 -64q39 -52 69 -98l31 -47zM283 855q55 0 93 -40q39 -40 39 -96
t-38 -96q-39 -41 -94 -41t-93 40q-39 41 -39 97t38 96q39 40 94 40zM586 527h341q10 0 16 -6t6 -15v-47q0 -22 -22 -22h-341q-21 0 -21 22v47q0 21 21 21z" />
    <glyph glyph-name="uniE918" unicode="&#xe918;" 
d="M181 533v86h128v-86h-128zM95 363v85h214v-85h-214zM181 192v85h128v-85h-128zM863 619h86v-512h-512v512h85q0 70 50 120t121 50t120 -50q50 -50 50 -120zM693 704q-35 0 -60 -25q-26 -25 -26 -60h171q0 35 -25 60t-60 25z" />
    <glyph glyph-name="uniE919" unicode="&#xe919;" 
d="M607 875q142 0 242 -31t100 -76v-640q0 -21 -22 -21h-21q0 -35 -25 -60q-25 -26 -60 -26t-60 25q-26 26 -26 61h-298v-64q0 -22 -22 -22h-42q-22 0 -22 22v64h-64q-21 0 -21 21v192h-149q-10 0 -16 6t-6 15v43q0 21 22 21h746v256q-6 -35 -29 -58q-24 -24 -56 -27h-9
q-39 0 -67 23q-29 23 -35 62h-4q-7 -35 -30 -58q-24 -24 -56 -27h-9q-39 0 -67 23t-34 62h-5q-6 -35 -34 -60q-29 -25 -64 -25q-41 0 -69 31q-29 31 -29 76v85q0 45 100 76t241 31z" />
    <glyph glyph-name="uniE91A" unicode="&#xe91a;" 
d="M778 363v-150q0 -9 -6 -15t-15 -6h-22v-171h-85v171h-256v-171h-85v171h-22q-9 0 -15 6t-6 15v150h512zM351 448v427h342v-427h-342z" />
    <glyph glyph-name="uniE91B" unicode="&#xe91b;" 
d="M206 510l51 298l252 -42l-51 -299q-7 -41 -37 -72q-31 -32 -70 -39q-30 -166 -30 -170q0 -2 2 -4q2 -3 6 -5q4 -3 5 -4q56 -36 56 -81v-9l-252 47q6 50 81 64q13 0 17 4l30 171q-27 16 -44 49q-17 34 -17 70q0 15 1 22zM292 757l-17 -85l170 -30l13 85zM906 130l-256 -47
q-2 10 -2 14q0 43 57 76q13 10 13 13l-30 170q-39 7 -69 38q-31 32 -37 73l-51 299l251 47l51 -299q4 -12 4 -29q0 -35 -17 -65q-17 -31 -46 -47q25 -166 30 -170q7 -9 17 -9q31 -6 54 -23q24 -18 31 -41zM599 642l166 30l-13 85l-166 -30z" />
    <glyph glyph-name="uniE91C" unicode="&#xe91c;" 
d="M458 868q-82 -53 -119 -132q-38 -79 -60 -201h-184q29 132 129 224q101 93 234 109zM697 531l-132 4v-426h64q9 0 15 -6t6 -16v-42q0 -10 -6 -16t-15 -6h-214q-9 0 -15 6t-6 16v42q0 19 15 19h3q2 -1 3 -1h64v426h-132q16 106 64 200t111 142q67 -48 113 -138
q46 -91 62 -204zM586 868q134 -16 234 -109t129 -228h-184q-22 122 -59 201q-38 80 -120 136z" />
    <glyph glyph-name="uniE91D" unicode="&#xe91d;" 
d="M349 576v235q0 9 6 15t16 6h298q10 0 16 -6t6 -15v-235h-342zM264 491h516v-64q0 -22 -21 -22h-90l60 -341h-85l-47 256h-158l-47 -256h-85l59 341h-81q-21 0 -21 22v64z" />
    <glyph glyph-name="uniE91E" unicode="&#xe91e;" 
d="M552 862l384 -384q13 -15 13 -30t-13 -30l-384 -384q-15 -13 -30 -13t-30 13l-384 384q-13 15 -13 30t13 30l384 384q15 13 30 13t30 -13zM607 341l150 150l-150 149v-107h-213q-19 0 -31 -11q-12 -12 -12 -31v-171h86v128h170v-107z" />
    <glyph glyph-name="uniE91F" unicode="&#xe91f;" 
d="M944 431q5 -4 5 -13v-153q0 -22 -22 -22h-38q-7 0 -14 -5q-7 -6 -7 -12q-7 -42 -39 -70q-33 -28 -77 -28t-76 28t-39 70q0 6 -7 11q-7 6 -14 6h-192q-7 0 -14 -5q-7 -6 -7 -12q-7 -41 -40 -69q-34 -29 -76 -29t-74 28q-33 29 -37 70q0 6 -7 11q-7 6 -14 6h-38
q-22 0 -22 22v482q0 7 6 14q7 7 16 7h554q10 0 16 -6t6 -15v-128q0 -22 25 -22h94q3 0 8 -2q5 -3 5 -6zM287 183q25 0 42 18q18 19 18 42q0 26 -17 43q-18 17 -43 17t-42 -17t-17 -43t17 -43t42 -17zM428 465q18 36 18 70q0 56 -39 95q-40 40 -96 40q-37 0 -71 -17
q-26 -11 -51 -51q-15 -35 -15 -66q0 -56 40 -97q41 -41 98 -41q33 0 65 16q25 10 51 51zM757 183q22 0 39 18q17 19 20 42q0 26 -17 43t-42 17t-42 -17q-18 -17 -18 -43t17 -43q18 -17 43 -17zM334 631q9 0 9 -8v-102l-4 -5l-47 -47h-13l-13 17q-6 7 0 13l38 39q5 0 5 4v81
q0 8 8 8h17z" />
    <glyph glyph-name="uniE920" unicode="&#xe920;" 
d="M556 796q61 -7 110 -45q50 -39 69 -96h-426q18 56 66 95q49 39 104 46v4q0 16 11 27q12 11 28 11t27 -11t11 -27v-4zM927 399q10 0 16 -6t6 -15v-192q-3 -53 -42 -90q-40 -38 -92 -38h-7q-85 0 -124 64q-1 1 -2 3q-2 3 -3 4t-3 1q-6 2 -9 2q-16 0 -21 -10
q-43 -64 -124 -64q-85 0 -124 64q-1 1 -2 3q-2 3 -3 4t-3 1q-6 2 -9 2q-16 0 -21 -10q-43 -64 -124 -64h-7q-52 0 -91 37q-40 38 -43 91v192q0 21 22 21h196l51 128h-55v85h426v-85h-72l60 -128h204zM407 399h226l-60 128h-115z" />
    <glyph glyph-name="uniE921" unicode="&#xe921;" 
d="M928 147q9 0 15 -7q7 -7 7 -16q0 -7 -5 -15l-94 -86q-2 0 -8 -2q-7 -2 -9 -2h-623q-13 0 -17 4l-94 86q-6 8 -6 17t6 15q7 6 17 6h277v384h256v-384h278zM522 621q-35 0 -60 25t-25 60q0 17 9 26l59 132q7 13 19 13q13 0 20 -13l59 -132q5 -9 5 -26q0 -35 -25 -60
q-26 -25 -61 -25z" />
    <glyph glyph-name="uniE922" unicode="&#xe922;" 
d="M908 683q9 0 15 -7t6 -15v-384q0 -21 -21 -21h-107v-107q0 -21 -21 -21h-299q-9 0 -15 6t-6 15v598q0 9 6 15t15 6h299q21 0 21 -21v-64h107zM759 640v85h-256v-85h256zM844 341v256h-43v-256h43zM353 768q22 0 22 -26v-192q0 -41 -23 -73q-24 -33 -63 -46v-209
q0 -6 5 -11q5 -6 8 -6q69 -30 69 -77h-256q0 25 20 46t52 31q17 8 17 21v209q-38 13 -61 45q-24 33 -24 75v192q0 21 21 21h213zM332 640v85h-171v-85h171z" />
    <glyph glyph-name="uniE923" unicode="&#xe923;" 
d="M639 128l-74 448h384l-77 -458q-3 -23 -19 -38q-17 -15 -39 -16h-105q-26 1 -46 19t-24 45zM927 704q9 0 15 -6q7 -6 7 -15v-64h-384v64q0 9 6 15t15 6h149v43h-64q-8 0 -14 6q-7 6 -7 15v43q0 9 6 15q7 6 15 6h150v-128h106zM95 235v94h427v-94h-427zM309 491h14
q64 0 118 -35t81 -93h-427q27 58 81 93t118 35h15zM309 64h-15q-64 0 -118 35t-81 93h427q-27 -58 -81 -93t-118 -35h-14z" />
    <glyph glyph-name="uniE924" unicode="&#xe924;" 
d="M880 243q4 -8 4 -25q-5 -23 -30 -23h-3q-3 1 -5 1l-60 22q-11 -67 -60 -137q-12 -12 0 -26l30 -34h-469l21 34q8 14 0 26q-42 53 -55 137l-56 -17q-6 -8 -21 0q-16 11 -16 28q0 6 3 14l90 179q20 99 81 180q2 0 3 23q1 24 1 47v23q0 67 45 119t113 65q8 1 25 1
q70 0 122 -44q53 -45 62 -115l68 -30q13 -6 13 -17q0 -20 -17 -25l-64 -13q0 -22 4 -34q57 -76 77 -175zM611 738q0 21 -15 36t-36 15t-36 -15t-15 -36t15 -36t36 -15t36 15t15 36zM650 243v192q-7 48 -43 81q-37 34 -85 34t-85 -33q-37 -34 -43 -82v-192q6 -48 43 -81
q37 -34 85 -34t84 33q37 34 44 82z" />
    <glyph glyph-name="uniE925" unicode="&#xe925;" 
d="M521 812q0 9 6 15t15 6h214q21 0 21 -21v-128q0 -22 -21 -22h-150v-422q1 -3 1 -9q0 -61 -39 -107q-40 -47 -102 -59q-18 -2 -27 -2q-54 0 -99 31t-62 82q-11 27 -11 60q0 53 31 96q31 44 82 62q32 10 58 10q45 0 83 -23v431z" />
    <glyph glyph-name="uniE926" unicode="&#xe926;" 
d="M223 256v256h86v-256h-86zM394 256v256h85v-256h-85zM565 256v256h85v-256h-85zM735 256v256h86v-256h-86zM159 555q-8 0 -14 6q-7 6 -7 15v85q0 9 6 15q7 7 15 7h107v64q0 8 6 14q7 7 15 7h65q19 25 44 44q56 41 126 41q106 0 170 -85h65q8 0 14 -6q7 -7 7 -15v-64h107
q8 0 14 -6q7 -7 7 -16v-85q0 -9 -6 -15q-7 -6 -15 -6h-726zM927 128q9 0 15 -6q7 -7 7 -15v-43q0 -9 -6 -15q-7 -6 -16 -6h-810q-9 0 -15 6q-7 6 -7 15v43q0 8 6 14q7 7 16 7h21v64q0 9 6 15q7 6 15 6h726q8 0 14 -6q7 -6 7 -15v-64h21z" />
    <glyph glyph-name="uniE927" unicode="&#xe927;" 
d="M672 598q8 0 14 -6q7 -7 7 -15l4 -147q0 -1 1 -3v-2l51 -184q1 -2 1 -6q0 -8 -6 -14q-7 -7 -15 -7h-413q-4 0 -6 1q-15 3 -15 20q0 4 1 6l51 184v5l4 147q0 8 6 14q7 7 15 7h300zM810 44h-184q-160 -1 -246 -1q-116 0 -143 1q-32 0 -44 9t-12 33v44q0 23 12 32t42 9h576
q28 0 40 -9t12 -30v-48q0 -22 -12 -31t-41 -9zM650 853h42q9 0 15 -6q7 -6 7 -15v-170q0 -9 -6 -15q-7 -7 -16 -7h-341q-8 0 -14 6q-7 7 -7 16v170q0 9 6 15q7 6 15 6h43q9 0 15 -6t6 -15v-64h43v64q0 9 6 15q7 6 15 6h86q8 0 14 -6q7 -6 7 -15v-64h43v64q0 9 6 15t15 6z
" />
    <glyph glyph-name="uniE928" unicode="&#xe928;" 
d="M746 367q2 1 7 1q9 0 16 -6t7 -16v-124q0 -11 -13 -17l-235 -120q-8 -4 -17 0l-234 120q-13 6 -13 17v124q0 10 7 16t16 6q5 0 7 -1l217 -107q9 -4 17 0zM934 597q2 -1 5 -3q4 -3 5 -3q1 -1 3 -2q2 -2 2 -3q1 -2 1 -4q1 -3 1 -6v-341q0 -22 -22 -22h-42q-22 0 -22 22v281
l-332 -170q-11 -6 -22 0l-405 209q-13 6 -13 21t13 21l401 214q11 5 21 0z" />
    <glyph glyph-name="uniE929" unicode="&#xe929;" 
d="M816 597l47 -550q0 -10 -6 -18t-15 -8h-636q-10 0 -17 7q-8 7 -8 19l47 550q0 22 21 22h102v85q0 71 50 121q51 50 121 50t120 -50q51 -50 51 -121v-85h98q10 0 17 -6q8 -7 8 -16zM607 619v85q0 35 -25 60t-60 25t-60 -25t-25 -60v-85h170z" />
    <glyph glyph-name="uniE92A" unicode="&#xe92a;" 
d="M737 704q-35 0 -60 25t-25 60t25 60q25 26 60 26t60 -25q25 -26 25 -61t-25 -60t-60 -25zM844 491q18 0 18 -20v-4q-1 -4 -1 -6l-30 -303q-9 -17 -26 -17l-43 4q-17 8 -17 26l22 209q0 10 -6 17q-7 8 -16 8h-85q34 -62 34 -128q0 -105 -75 -180q-75 -76 -181 -76t-181 75
q-75 76 -75 181q0 86 51 153q52 68 133 91l145 153q6 6 6 15t-6 15l-56 51q-11 13 -25 4l-90 -59q-4 -5 -11 -5q-8 0 -19 9l-25 34q-3 7 -3 14q0 12 11 16l150 94q14 7 25 -4l222 -209q9 -5 9 -18q0 -8 -5 -12l-119 -124zM438 107q70 0 120 49q51 49 51 117q0 75 -60 128
q-6 6 -12 10t-14 8q-8 5 -12 8q-10 6 -47 17q-9 4 -21 4h-5q-70 0 -120 -50t-50 -121q0 -70 50 -120t120 -50z" />
    <glyph glyph-name="uniE92B" unicode="&#xe92b;" 
d="M520 555q44 0 77 -33q33 -34 33 -78v-7q0 -43 -32 -73q-32 -31 -78 -31q-45 0 -78 33t-33 78q0 44 33 77q33 34 78 34zM533 747q138 0 253 -83q115 -84 163 -216q-48 -134 -162 -216q-115 -83 -254 -83h-22q-143 0 -257 82t-159 217q48 132 163 215q115 84 253 84h22z
M520 256q77 0 132 55q55 56 55 133q0 79 -55 133t-132 54q-76 0 -131 -55q-56 -55 -56 -132t55 -132q55 -56 132 -56z" />
    <glyph glyph-name="uniE92C" unicode="&#xe92c;" 
d="M533 747q138 0 253 -83q115 -84 163 -216q-48 -134 -162 -216q-115 -83 -254 -83h-22q-143 0 -257 82t-159 217q48 132 163 215q115 84 253 84h22zM533 222q108 0 199 61q92 62 136 165q-41 103 -132 164q-92 62 -203 62h-22q-111 0 -202 -61q-92 -62 -133 -165
q41 -103 132 -164q92 -62 203 -62h22zM520 631q77 0 132 -54t55 -133q0 -77 -55 -132q-55 -56 -132 -56t-132 55q-55 56 -55 133t55 132q56 55 132 55zM520 333q46 0 78 30q32 31 32 74v7q0 44 -33 77q-33 34 -77 34q-45 0 -77 -33q-33 -33 -33 -78t32 -78q33 -33 78 -33z
" />
    <glyph glyph-name="uniE92D" unicode="&#xe92d;" 
d="M927 409q22 0 22 -22v-85q0 -21 -22 -21h-341q-21 0 -21 -22v-51q0 -11 12 -17l73 -38v-43h-256v43l73 38q12 6 12 17v51q0 22 -21 22h-341q-22 0 -22 21v85q0 22 22 22h810z" />
    <glyph glyph-name="uniE92E" unicode="&#xe92e;" 
d="M842 409q21 0 21 -22v-85q0 -21 -21 -21h-256q-21 0 -21 -22v-51q0 -11 12 -17l73 -38v-43h-256v43l73 38q12 6 12 17v51q0 22 -21 22h-21q-3 0 -7 2t-6 2l-312 316q-6 6 -6 15q0 7 6 15l60 59q6 7 15 7t15 -7l273 -277q2 0 8 -2q7 -2 9 -2h350z" />
    <glyph glyph-name="uniE92F" unicode="&#xe92f;" 
d="M757 409q9 0 15 -6t6 -16v-85q0 -21 -21 -21h-171q-21 0 -21 -22v-51q0 -11 12 -17l73 -38v-43h-256v43l72 38q13 6 13 17v51q0 22 -21 22h-73q-15 0 -21 13l-175 418q-1 3 -1 9q0 15 14 21l81 34q2 1 7 1q13 0 19 -14l145 -341q6 -13 21 -13h282z" />
    <glyph glyph-name="uniE930" unicode="&#xe930;" 
d="M650 661h171v-170h-43v-171h-213v-137q19 -9 30 -29q12 -20 12 -43q0 -35 -25 -60t-60 -25t-60 25t-25 60q0 23 11 43q12 20 31 29v52h-213v179q-19 10 -31 30t-12 42q0 35 25 60q26 26 61 26t60 -25q25 -26 25 -61q0 -22 -12 -42t-31 -30v-94h128v384h-85l128 171
l128 -171h-85v-299h128v86h-43v170z" />
    <glyph glyph-name="uniE931" unicode="&#xe931;" 
d="M842 555q21 0 21 -22v-98q0 -9 -8 -17l-162 -153v-201q0 -21 -22 -21h-298q-22 0 -22 21v201l-162 153q-8 8 -8 17v98q0 22 21 22h107v277q0 21 21 21h85q22 0 22 -21v-277h170v277q0 21 22 21h85q21 0 21 -21v-277h107z" />
    <glyph glyph-name="uniE932" unicode="&#xe932;" 
d="M484 367q-8 -5 -18 -5q-12 0 -20 7q-9 8 -9 19v205q0 12 9 19q9 8 21 8q10 0 17 -6l153 -102q13 -9 13 -23q0 -13 -13 -20zM927 832q10 0 16 -6t6 -15v-640q0 -22 -22 -22h-234v-64q0 -9 -6 -15t-16 -6h-298q-10 0 -16 6t-6 15v64h-234q-22 0 -22 22v640q0 9 6 15t16 6
h810zM863 235v512h-682v-512h682z" />
    <glyph glyph-name="uniE933" unicode="&#xe933;" 
d="M479 789v-213h-85v277q0 10 6 16t15 6h214q9 0 15 -6t6 -16v-277h-85v213h-86zM395 64q0 17 12 29q13 13 30 13q18 0 30 -12q13 -13 13 -30q0 -18 -12 -30q-13 -13 -31 -13q-17 0 -29 12q-13 13 -13 31zM565 64q0 17 12 29q13 13 30 13q18 0 30 -12q13 -13 13 -30
q0 -18 -12 -30q-13 -13 -31 -13q-17 0 -29 12q-13 13 -13 31zM714 529q21 0 21 -17v-388q0 -17 -21 -17h-384q-21 0 -21 17v388q0 17 21 17h384z" />
    <glyph glyph-name="uniE934" unicode="&#xe934;" 
d="M757 853q8 0 14 -7q7 -8 7 -15v-712q0 -10 -9 -17l-59 -51q-4 -7 -11 -7q-8 0 -15 7l-68 55h-4l-73 -60q-12 -6 -26 0l-72 60h-4l-73 -60q-12 -6 -25 0l-64 52q-9 7 -9 17v716q0 7 6 14q7 8 15 8h470zM607 337v85h-256v-85h256zM693 507v86h-342v-86h342z" />
    <glyph glyph-name="uniE935" unicode="&#xe935;" 
d="M394 641v128h555v-128h-555zM138 670v5l-43 51q0 8 5 8l59 17l5 5l34 51q0 3 4 3t4 -3l39 -56l59 -17q5 0 5 -8l-43 -51v-5l4 -64q0 -8 -8 -8l-60 25h-4l-56 -25q-8 0 -8 8zM394 385v128h555v-128h-555zM245 495l59 -12q9 -9 5 -13l-43 -51v-5l4 -64q0 -8 -8 -8l-60 25
h-4l-56 -25q-8 0 -8 8l4 64v5l-43 51v4l60 17l4 4l34 56q7 6 13 0zM394 129v128h555v-128h-555zM245 239l59 -12q9 -9 5 -13l-43 -51v-5l4 -64q0 -8 -8 -8l-60 25h-4l-56 -25q-8 0 -8 8l4 64v5l-43 51v4l60 17l4 4l34 56q7 6 13 0z" />
    <glyph glyph-name="uniE936" unicode="&#xe936;" 
d="M927 789q8 0 15 -6t7 -15v-640q0 -21 -22 -21h-810q-22 0 -22 21v640q0 21 22 21h810zM863 192v512h-682v-512h682zM565 533v86h213v-86h-213zM565 405v86h213v-86h-213zM565 277v86h213v-86h-213zM330 555q0 26 19 45t45 19t45 -19t19 -45q0 -27 -19 -45
q-19 -19 -45 -19t-45 18q-19 19 -19 46zM287 277q-9 0 -15 6t-6 16v76q0 9 4 13q49 61 125 61q53 0 97 -35l26 -26q4 -4 4 -13v-76q0 -10 -6 -16t-15 -6h-214z" />
    <glyph glyph-name="uniE937" unicode="&#xe937;" 
d="M735 602l-81 -568q0 -13 -17 -13h-230q-11 0 -17 13l-81 568q0 6 5 11q5 6 12 6h394q15 0 15 -17zM714 747q21 0 21 -22v-42q0 -22 -21 -22h-384q-21 0 -21 22v42q0 22 21 22h149v42h-55q-13 0 -21 6q-9 6 -9 16v42q0 10 8 16q9 6 22 6h115q10 0 18 -6q8 -7 8 -16v-106
h149z" />
    <glyph glyph-name="uniE938" unicode="&#xe938;" 
d="M531 853q157 -3 266 -115t109 -269v-405q0 -21 -21 -21h-214q-21 0 -21 21v299q0 9 6 15t15 6h150v94q-4 122 -90 206t-205 84h-8q-123 -6 -209 -94t-86 -210v-80h150q9 0 15 -6t6 -15v-299q0 -21 -21 -21h-214q-21 0 -21 21v393q0 163 115 279q115 117 278 117z" />
    <glyph glyph-name="uniE939" unicode="&#xe939;" 
d="M147 527q0 21 14 36q15 15 37 15q21 0 36 -15t15 -36t-15 -36t-36 -15q-22 0 -36 15q-15 15 -15 36zM304 399v-34q0 -21 -21 -21h-166q-22 0 -22 21v34q0 13 5 13q33 47 98 47q63 0 102 -47q4 -4 4 -13zM471 821q0 22 15 37t36 15t36 -15t15 -37q0 -21 -15 -36t-36 -15
t-36 15t-15 36zM439 638q-22 0 -22 21v34q0 13 5 13q33 47 98 47q63 0 102 -47q5 -4 5 -13v-34q0 -21 -22 -21h-166zM787 527q0 21 14 36q15 15 37 15q21 0 36 -15t15 -36t-15 -36t-36 -15q-22 0 -36 15q-15 15 -15 36zM944 412q5 -4 5 -13v-34q0 -22 -22 -22h-170
q-22 0 -22 22v34q0 8 5 13q36 47 89 47h13q63 0 102 -47zM471 207q0 21 15 36t36 15t36 -15t15 -36t-15 -36t-36 -15t-36 15t-15 36zM520 139q63 0 102 -47q5 -5 5 -13v-34q0 -22 -22 -22h-166q-22 0 -22 22v34q0 8 5 13q39 47 98 47zM682 600l64 -470h-90l-51 384h-170
l-52 -384h-85l60 470h324z" />
    <glyph glyph-name="uniE93A" unicode="&#xe93a;" 
d="M558 492h-13q-25 0 -44 -19q-20 -20 -20 -45h-124q19 -68 60 -128q41 59 64 124v-180q-42 -8 -64 -8q-131 0 -225 94q-95 95 -95 226t94 225q95 95 226 95t225 -94q95 -95 95 -226q0 -26 -9 -64h-64q9 47 9 64q0 24 -9 64h-106q4 -22 4 -64q0 -43 -4 -64zM417 807
q-44 -64 -60 -128h120q-19 68 -60 128zM336 794q-92 -26 -141 -110h94q26 76 47 110zM169 492h107q-4 21 -4 64q0 10 2 31q2 22 2 33h-107q-8 -44 -8 -64q0 -22 8 -64zM195 428q42 -79 137 -116q-36 83 -43 116h-94zM489 492q0 10 2 31q3 22 3 33q0 42 -5 64h-149
q0 -11 -2 -32q-2 -22 -2 -32q0 -11 2 -32q2 -22 2 -32h149zM639 684q-47 80 -137 115q35 -79 43 -115h94zM929 125h-73q-8 0 -12 -5l-137 -98q-6 -3 -16 0t-10 9v72q0 22 -21 22h-119q-22 0 -22 21v277q0 22 22 22h384q9 0 15 -6t6 -16v-277q1 -2 1 -5q0 -6 -5 -11
q-6 -5 -13 -5z" />
    <glyph glyph-name="uniE93B" unicode="&#xe93b;" 
d="M691 278q-16 -64 -60 -153q37 12 77 38l-56 -119q-73 -22 -132 -22q-72 0 -162 30q-121 50 -192 159t-71 237q0 86 32 163q50 121 159 192t237 71q84 0 163 -33q121 -50 192 -158q71 -109 71 -237q0 -85 -32 -164l-56 120q4 17 4 47q0 40 -12 85h-145q0 -15 2 -42
q2 -28 2 -43q0 -56 -4 -85h98l-43 -86h-72zM814 620q-54 103 -183 153q44 -89 60 -153h123zM520 790q-60 -97 -81 -170h162q-21 81 -81 170zM191 364h145q0 14 -2 42t-2 43q0 55 4 85h-145q-9 -42 -9 -85q0 -44 9 -85zM225 278q57 -105 184 -153q-42 82 -60 153h-124z
M349 620q18 71 60 153q-121 -47 -184 -153h124zM520 108q61 98 81 170h-162q21 -81 81 -170zM422 364h196q6 41 13 85q0 31 -9 85h-200q-9 -54 -9 -85q0 -33 9 -85zM733 120l107 222q89 -183 106 -222q-57 18 -81 26v-124h-51v124q-15 -5 -40 -13q-26 -8 -41 -13z" />
    <glyph glyph-name="uniE93C" unicode="&#xe93c;" 
d="M940 346q9 -11 9 -17v-94q0 -22 -22 -22h-234v-149q0 -21 -22 -21h-298q-22 0 -22 21v149h-234q-22 0 -22 22v94q0 6 9 17l375 226v111h43q30 0 43 25q2 10 2 14q0 30 -28 42q-4 2 -14 2q-31 0 -41 -28q-8 -13 -22 -13h-47q-7 0 -12 5q-6 6 -6 14v3q1 3 1 4q14 67 81 94
q20 8 44 8q39 0 71 -23q33 -23 47 -62q9 -21 9 -44q0 -38 -23 -70q-23 -33 -62 -48v-34zM693 299h145l-316 196l-307 -196h136v21q0 21 22 21h298q22 0 22 -21v-21z" />
    <glyph glyph-name="uniE93D" unicode="&#xe93d;" 
d="M949 491v-86h-180l141 -140l-59 -60l-201 200h-85v-85l192 -196l-60 -60l-137 137v-180h-85v175l-136 -136l-60 59l200 201v85h-85l-196 -196l-60 60l137 136h-180v86h180l-141 136l59 60l201 -196h85v85l-200 196l64 60l136 -137v180h86v-180l136 137l64 -55l-200 -201
v-85h85l196 196l60 -60l-137 -136h180z" />
    <glyph glyph-name="uniE93E" unicode="&#xe93e;" 
d="M362 547q-13 6 -13 22q21 173 154 298q10 7 21 7q10 0 17 -7q130 -123 149 -298q0 -8 -12 -22q-56 -27 -141 -94q-6 -6 -17 -6t-17 6q-60 54 -141 94zM951 513v-26q0 -66 -12 -126q-13 -60 -44 -119t-78 -103q-48 -45 -123 -76t-170 -41h-4q-196 13 -311 137
q-116 124 -116 333v21q0 21 21 21q116 -3 218 -58t171 -146q6 -11 19 -11q7 0 19 6q68 93 169 148q102 55 219 61q8 0 15 -6t7 -15z" />
    <glyph glyph-name="uniE93F" unicode="&#xe93f;" 
d="M682 768q0 37 26 63q27 27 64 27t63 -26q26 -27 26 -64t-26 -63q-26 -27 -63 -27t-63 26q-27 27 -27 64zM925 166q22 0 22 -21v-43q0 -26 -20 -45t-49 -19h-785v86h299l136 162q7 6 7 15q0 8 -7 15q-95 82 -123 149h-261q-9 0 -15 7q-7 7 -7 17q0 7 5 14l43 43q2 0 8 2
q7 2 9 2h226q21 0 39 17q87 105 106 124q28 21 62 21q49 0 79 -42l124 -115h128q0 -39 -30 -69q-36 -42 -88 -42q-42 0 -74 25l-26 26q-13 13 -30 13h-21q-15 0 -30 -13l-64 -64l85 -85q16 -19 16 -43t-16 -43l-59 -60q-13 -10 -13 -28q0 -19 13 -33q14 -15 34 -15h213v21
q0 21 22 21h42z" />
    <glyph glyph-name="uniE940" unicode="&#xe940;" 
d="M949 580q1 -2 1 -7q0 -11 -10 -23l-111 -85q-5 -5 -12 -5q-13 0 -18 9l-102 145v-64q0 -9 -6 -15t-15 -6h-158q-21 0 -21 21q0 8 4 13l153 269h-42l-77 -115l-56 115h-42l72 -166l-68 -128q-7 -9 -17 -9h-51q-10 0 -16 6t-6 15v64l-102 -140q-7 -9 -19 -9q-7 0 -11 4
l-111 86q-9 3 -10 11q-2 8 2 14l179 282q7 13 21 13h448q8 0 17 -9zM671 320q10 0 16 -6t6 -15v-256q0 -22 -22 -22h-298q-22 0 -22 22v256q0 8 7 14q8 7 15 7h298zM351 393v55h342v-55h-342z" />
    <glyph glyph-name="uniE941" unicode="&#xe941;" 
d="M761 661q82 -29 135 -101t53 -163q0 -116 -81 -197q-82 -81 -197 -81q-78 0 -149 43q-71 -43 -149 -43q-115 0 -196 81q-82 81 -82 197q0 113 77 193q78 80 185 80h7q80 0 149 -43q21 15 60 30l-21 43q-4 9 4 25l43 43q9 9 17 9h98q13 0 17 -5l47 -42q8 -18 4 -26z
M454 226q-60 72 -60 171q0 101 60 179q-49 17 -81 17q-80 0 -136 -56t-56 -136t56 -136t136 -56q47 0 81 17zM522 277q43 56 43 120q0 63 -43 119q-43 -56 -43 -119q0 -64 43 -120zM671 205q80 0 136 56t56 136t-56 136t-136 56q-47 0 -81 -17q60 -78 60 -175
q0 -103 -60 -175q49 -17 81 -17z" />
    <glyph glyph-name="uniE942" unicode="&#xe942;" 
d="M907 203q21 0 21 -21v-128q0 -22 -21 -22h-43q-21 0 -21 22v42q0 10 -6 16t-15 6h-384q-22 0 -22 -22v-42q0 -22 -21 -22h-51q-9 0 -15 5q-7 6 -7 12v77q0 13 -4 17l-128 128q-6 6 -6 15t6 15l30 30q6 6 15 6t15 -6l119 -124q5 -4 17 -4h521zM327 826q-62 -90 -62 -204
q0 -66 23 -172l-166 -68q-6 36 -6 72q0 113 56 212q56 100 155 160zM472 519l-116 -47q-20 85 -20 165q0 132 50 214q76 -18 151 -85q76 -68 135 -166l-119 -47l89 -218q2 -6 2 -9q0 -16 -14 -21l-39 -17q-3 -1 -9 -1q-15 0 -21 14zM732 625q-68 109 -130 168
q-63 59 -160 80q50 12 100 12q105 0 200 -50q95 -51 156 -141z" />
    <glyph glyph-name="uniE943" unicode="&#xe943;" 
d="M945 70q4 -4 4 -10q0 -8 -6 -13q-6 -6 -15 -6h-810q-10 0 -16 7q-7 7 -7 16v3q1 2 1 3l133 261q3 6 11 8q8 3 14 0l103 -42h17l119 51q3 3 8 3q6 0 9 -3l124 -51h13l136 42q15 0 22 -13zM310 420q-19 7 -19 26q0 2 2 8l102 312l21 -43l22 -42l72 162q6 12 19 12t20 -12
l204 -397q4 -5 4 -11q0 -8 -4 -13q-5 -6 -12 -6l-52 -17h-12l-137 60q-8 8 -17 0l-137 -52h-12z" />
    <glyph glyph-name="uniE944" unicode="&#xe944;" 
d="M885 442q50 -44 64 -111q0 -106 -125 -181q-126 -75 -302 -75t-301 75q-126 75 -126 181q9 73 64 111q0 -90 106 -154t257 -64q152 0 257 63q106 63 106 155zM334 540q0 26 -18 64q-18 39 -20 55q-1 6 -1 17q0 31 19 78q20 48 20 67h73q0 -25 -21 -70q-22 -46 -22 -75
q0 -22 21 -67q22 -45 22 -74q0 -24 -20 -70q-21 -46 -23 -66h-68q2 25 20 71t18 70zM535 399l-68 -4q2 25 22 70q20 46 20 70q0 25 -18 65t-20 59q-1 6 -1 17q0 30 17 75q18 45 18 64v6h72q0 -25 -21 -70q-21 -46 -21 -75q0 -22 21 -67t21 -74q0 -25 -20 -70
q-20 -46 -22 -66zM676 540q0 26 -18 64q-19 39 -21 55v8q-1 6 -1 9q0 30 20 75t20 70h72q0 -25 -21 -70q-21 -46 -21 -75q0 -22 21 -67t21 -74q0 -25 -20 -70q-20 -46 -22 -66h-69q2 23 20 66q19 44 19 67v8z" />
    <glyph glyph-name="uniE945" unicode="&#xe945;" 
d="M711 199q9 2 26 2q38 0 99 -31t92 -31v-107q-35 0 -95 32q-60 33 -94 33q-5 0 -7 -1q-33 0 -94 -32t-98 -32q-34 0 -95 32q-61 33 -91 33q-4 0 -6 -1q-35 0 -90 -32t-91 -32h-7v107q37 2 88 30t79 34q4 1 14 1q40 0 105 -32q65 -33 98 -33q30 0 84 28q55 28 83 32z
M327 805q-62 -90 -62 -204q0 -66 23 -172l-166 -68q-6 36 -6 72q0 113 56 212q56 100 155 160zM472 498l-116 -47q-20 85 -20 165q0 132 50 214q76 -18 151 -85q76 -68 135 -166l-119 -47l89 -218q2 -6 2 -10q0 -15 -14 -20l-39 -17q-6 -2 -9 -2q-16 0 -21 15zM732 604
q-68 109 -130 168q-63 59 -160 80q50 12 100 12q105 0 200 -51t156 -141z" />
    <glyph glyph-name="uniE946" unicode="&#xe946;" 
d="M95 533h235q2 0 39 -106q37 -107 73 -214l37 -106zM565 107q2 8 29 90q28 83 61 183q33 101 50 153h244zM394 533h256l-128 -388zM249 768q9 -27 28 -92q20 -65 32 -100h-214q52 64 154 192zM949 576h-214q12 35 31 100q20 65 29 92q102 -128 154 -192zM633 576h-222
q19 28 55 83q37 56 56 83q19 -27 55 -83q37 -56 56 -83zM492 789q-22 -32 -62 -93q-41 -62 -62 -94q-6 18 -64 187h188zM740 789q-22 -59 -64 -187q-21 32 -61 93q-41 62 -63 94h188z" />
    <glyph glyph-name="uniE947" unicode="&#xe947;" 
d="M288 791q0 36 25 61t60 25t60 -25q26 -25 26 -61q0 -35 -25 -60q-26 -25 -61 -25t-60 25t-25 60zM527 604q9 -23 34 -110q26 -87 26 -91q7 -13 -18 -21l-42 -9q-6 -3 -14 1q-9 5 -12 12l-34 120v-192l21 -265q0 -21 -21 -21l-47 -5h-3q-2 -1 -4 -1q-8 0 -13 5q-5 6 -5 14
l-22 256l-21 -256q-8 -18 -26 -18l-47 5q-21 0 -21 21l26 269v200l-39 -128q-5 -14 -18 -14q-3 0 -7 2l-43 8q-10 3 -15 9t-2 12q51 167 64 201q0 2 1 3t3 2l4 4q58 43 126 43q10 0 15 -1q5 1 16 1q70 0 129 -48q9 0 9 -8zM736 352q-29 0 -49 20q-20 21 -24 53q3 29 23 48
q21 20 50 20h4q29 -3 48 -23q20 -21 20 -50q-3 -29 -23 -48q-21 -20 -49 -20zM881 207q4 -4 4 -17l-21 -21q-14 -8 -22 0l-29 29l25 -98h-30v-68q0 -13 -12 -13h-30q-13 0 -13 13v68h-30v-68q0 -13 -13 -13h-30q-12 0 -12 13v68h-30l25 98l-30 -29q-14 -9 -21 0l-21 21
q-3 3 -3 8q0 6 3 9l77 85q4 5 12 13q24 18 54 18q48 0 74 -35z" />
    <glyph glyph-name="uniE948" unicode="&#xe948;" 
d="M173 578q-10 0 -26 9q-10 10 -10 25q0 14 10 26l51 55l5 5q7 7 19 7q16 0 23 -12l56 -55q8 -8 8 -21q0 -17 -8 -28q-9 -11 -22 -11h-106zM770 578q-14 0 -21 9q-10 9 -10 25t10 26l51 55l4 5q12 6 19 6q13 0 24 -11l51 -55q9 -9 9 -21q0 -17 -8 -28q-9 -11 -22 -11h-107z
M446 706q-26 0 -39 13q-12 16 -12 36t12 32l86 73q13 13 32 13q18 0 36 -13l77 -77q13 -15 13 -34q0 -18 -12 -30q-12 -13 -29 -13h-164zM885 535q22 0 22 -21v-469q0 -22 -22 -22h-256q-21 0 -21 22v213q0 21 -21 21h-128q-22 0 -22 -21v-213q0 -22 -21 -22h-256
q-21 0 -21 22v469q0 21 21 21h128q21 0 21 -21v-43q0 -9 6 -15t16 -6h42q10 0 16 6t6 15v171q0 21 21 21h213q22 0 22 -21v-171q0 -21 21 -21h43q9 0 15 6t6 15v43q0 21 21 21h128z" />
    <glyph glyph-name="uniE949" unicode="&#xe949;" 
d="M865 509q39 -39 39 -95v-12q0 -25 -5 -38q-13 -55 -57 -89q-44 -35 -100 -35q-22 0 -39 4l-132 39h-6q-9 0 -15 -7t-6 -17v-3q1 -2 1 -3l77 -201q1 -2 1 -7q0 -9 -6 -16t-16 -7h-158q-10 0 -16 7q-7 7 -7 16v4q1 2 1 3l77 201q2 3 2 9q0 9 -6 15q-7 6 -16 6h-5l-133 -39
q-16 -4 -37 -4q-55 0 -100 35q-46 35 -59 89q-4 13 -4 38q0 63 42 107l325 358q7 7 17 7t17 -7z" />
    <glyph glyph-name="uniE94A" unicode="&#xe94a;" 
d="M842 875q21 0 21 -22v-810q0 -22 -21 -22h-640q-21 0 -21 22v810q0 22 21 22h640zM522 525v162q0 17 -13 17h-21q-7 0 -12 -5q-5 -6 -5 -12v-166h-26v166q0 6 -5 11q-5 6 -12 6h-21q-7 0 -12 -5q-5 -6 -5 -12v-166h-26v166q0 6 -5 11q-5 6 -12 6h-21q-7 0 -12 -5
q-5 -6 -5 -12v-239q0 -7 5 -12t12 -5h59v-226q0 -7 5 -12q6 -5 13 -5h25q7 0 12 5t5 12v226h60q6 0 11 5q6 5 6 12v77zM735 209v435q0 25 -19 42q-19 18 -45 18q-25 0 -44 -16q-20 -17 -20 -39v-197q0 -6 5 -11q6 -6 12 -6h47v-226q0 -6 5 -11q6 -6 12 -6h30q7 0 12 5
q5 6 5 12z" />
    <glyph glyph-name="uniE94B" unicode="&#xe94b;" 
d="M411 260l-30 30q-6 6 -6 15t6 15l94 94q0 2 2 8q2 7 2 9v209q0 21 22 21h42q22 0 22 -21v-243q0 -13 -5 -17l-119 -120q-6 -6 -15 -6t-15 6zM522 875q176 0 301 -125q126 -126 126 -302t-125 -301q-126 -126 -302 -126t-301 125q-126 126 -126 302q0 83 33 162
q33 80 91 141l-81 81h213v-213l-72 68q-98 -105 -98 -239q0 -141 100 -241t241 -100t241 100t100 241t-100 241t-241 100v86z" />
    <glyph glyph-name="uniE94C" unicode="&#xe94c;" 
d="M927 704q10 0 16 -6t6 -15v-43q0 -21 -22 -21h-546q-10 -19 -29 -31q-20 -12 -43 -12t-43 12t-30 31h-119q-22 0 -22 21v43q0 9 6 15t16 6h119q10 19 30 31t43 12t42 -12q20 -12 30 -31h546zM927 277q22 0 22 -21v-43q0 -9 -6 -15t-16 -6h-460q-10 -19 -30 -31t-43 -12
t-43 12t-30 31h-204q-10 0 -16 6t-6 15v43q0 21 22 21h204q10 19 30 31t43 12t43 -12t30 -31h460zM927 491q22 0 22 -22v-42q0 -22 -22 -22h-162q-10 -19 -30 -30q-20 -12 -42 -12q-23 0 -43 11q-20 12 -30 31h-503q-22 0 -22 22v42q0 22 22 22h503q10 19 30 30q20 12 43 12
q22 0 42 -11q20 -12 30 -31h162z" />
    <glyph glyph-name="uniE94D" unicode="&#xe94d;" 
d="M927 875q19 0 26 -22v-721q0 -16 -17 -21l-269 -90h-8l-278 98h-8l-256 -93q-22 0 -22 21v717q0 15 17 21l265 90h4l286 -94h9zM667 124v559l-286 102v-559z" />
    <glyph glyph-name="uniE94E" unicode="&#xe94e;" 
d="M842 875q21 0 21 -22v-725q0 -21 -21 -21h-171l56 -47q8 -10 8 -17q0 -9 -7 -15q-8 -7 -18 -7h-376q-10 0 -17 6q-8 7 -8 16q0 7 8 17l56 47h-171q-21 0 -21 21v725q0 22 21 22h640zM373 235q25 0 44 19q20 19 20 45t-19 45q-20 19 -45 19t-44 -19q-20 -19 -20 -45
t19 -45q20 -19 45 -19zM671 235q25 0 44 19q20 19 20 45t-19 45q-20 19 -45 19t-44 -19q-20 -19 -20 -45t19 -45q20 -19 45 -19zM778 512v213q0 10 -6 16t-15 6h-470q-9 0 -15 -6t-6 -16v-213q0 -21 21 -21h470q21 0 21 21z" />
    <glyph glyph-name="uniE94F" unicode="&#xe94f;" 
d="M829 777l120 -325v-409q0 -22 -22 -22h-85q-21 0 -21 22v42q0 22 -22 22h-554q-22 0 -22 -22v-42q0 -22 -21 -22h-85q-22 0 -22 22v409l124 325q12 12 17 12h124q7 0 14 6q7 7 7 16v42q0 22 22 22h243q21 0 21 -22v-42q0 -10 6 -16t15 -6h120q9 0 21 -12zM287 192
q25 0 44 19q20 20 20 45t-19 44q-20 20 -45 20t-44 -19q-20 -20 -20 -45t19 -44q20 -20 45 -20zM757 192q25 0 44 19q20 20 20 45t-19 44q-20 20 -45 20t-44 -19q-20 -20 -20 -45t19 -44q20 -20 45 -20zM202 491h640l-81 213l-482 -4z" />
    <glyph glyph-name="uniE950" unicode="&#xe950;" 
d="M479 789v-213h-85v277q0 10 6 16t15 6h214q9 0 15 -6t6 -16v-277h-85v213h-86zM735 235l-298 294h277q21 0 21 -17v-277zM705 26l-64 64q1 -1 -1 -2q9 -11 9 -24q0 -18 -12 -30q-13 -13 -30 -13q-18 0 -30 12q-13 13 -13 31q0 16 11 27q11 12 27 14q0 2 5 2h-277
q-21 0 -21 17v298l-201 197l60 64l597 -598zM394 64q0 17 12 29q13 13 31 13q17 0 29 -12q13 -13 13 -30q0 -18 -12 -30q-13 -13 -30 -13q-18 0 -30 12q-13 13 -13 31z" />
    <glyph glyph-name="uniE951" unicode="&#xe951;" 
d="M940 623q9 -68 9 -145v-64q0 -30 -2 -64q-3 -35 -5 -54l-2 -19q-8 -59 -34 -85q-39 -34 -85 -34q-53 0 -128 -2t-123 -5l-48 -2q-222 9 -290 9q-56 0 -94 38q-12 12 -20 33q-9 22 -12 38l-2 15q-9 68 -9 136v64q0 32 2 67q3 36 5 55l2 19q8 60 34 85q39 34 85 34
q53 0 128 2q75 3 123 5l48 2q179 -9 299 -9q51 0 85 -34q12 -11 20 -32q9 -22 12 -37zM437 341l230 120l-230 119v-239z" />
    <glyph glyph-name="uniE952" unicode="&#xe952;" horiz-adv-x="1010" 
d="M172 195h18q108 0 187 67q-27 3 -74 41q-48 39 -64 59h54q-49 13 -78 52q-30 39 -30 89q42 -8 58 -16h9q-58 50 -58 124q0 36 16 68q112 -137 296 -150v37q3 58 46 97q43 40 100 40q40 0 83 -29q17 -10 31 -10q5 0 11 2l66 25q-18 -43 -54 -79q12 2 36 8q24 7 31 9l4 -5
q-12 -9 -32 -27t-26 -23q-9 -27 -9 -37q0 -102 -45 -192q-51 -91 -135 -147t-186 -65q-75 -7 -101 -7q-102 0 -141 53z" />
    <glyph glyph-name="uniE953" unicode="&#xe953;" 
d="M902 875q19 0 33 -14t14 -33v-760q0 -19 -14 -33t-33 -14h-218v333h111l17 128h-128v81q0 33 13 48q13 16 51 16h68v115q-29 5 -98 5h-25q-60 -6 -101 -51t-41 -105q0 -10 1 -15v-98h-111v-128h111v-329h-410q-19 0 -33 14t-14 33v760q0 19 14 33t33 14h760z" />
    <glyph glyph-name="uniE954" unicode="&#xe954;" 
d="M647 850q136 -41 217 -153q82 -112 82 -250q0 -64 -19 -127q-42 -136 -154 -217q-112 -82 -249 -82q-61 0 -127 19q23 32 54 113l25 103q35 -49 98 -49q94 0 157 77q64 77 64 188v10q-4 100 -77 168t-174 68h-9q-130 0 -205 -75t-75 -180q0 -52 23 -96q24 -45 65 -71
q15 -7 15 5q0 19 10 49q0 4 -5 9q-30 45 -30 99v9q4 75 55 126q52 51 123 51h24q67 0 114 -48q48 -48 48 -115v-9q0 -87 -38 -141q-38 -55 -95 -55h-20q-21 3 -33 19q-13 16 -13 37q0 6 2 18q18 59 35 142v5q0 22 -16 38t-38 16q-34 0 -56 -29q-23 -30 -23 -74q0 -35 15 -64
q-39 -177 -49 -211q-4 -27 -4 -62q0 -34 4 -61q-122 48 -196 157t-74 241q0 176 125 301q125 126 302 126q79 0 122 -25z" />
    <glyph glyph-name="uniE955" unicode="&#xe955;" 
d="M946 623q0 -12 2 -60t2 -115q0 -66 -2 -113t-2 -62q-8 -68 -21 -102q-17 -42 -50 -75t-74 -49q-55 -21 -102 -21q-56 -5 -175 -5q-120 0 -180 5q-68 8 -102 21q-41 16 -74 49q-34 33 -50 75q-21 60 -21 102q-3 45 -3 88q0 42 3 87q0 66 2 113t2 62q0 48 22 107
q32 84 123 119q48 21 98 21q60 5 180 5h175q72 -11 102 -22q88 -31 124 -128q21 -55 21 -102zM869 277q0 16 2 62t3 109q0 63 -2 109q-3 46 -3 62q0 43 -13 81q-19 60 -81 81q-41 13 -81 13q-55 4 -170 4q-64 0 -110 -2t-61 -2q-38 0 -85 -13q-62 -21 -81 -81q0 -1 -13 -81
q-5 -56 -5 -171q0 -63 2 -109q3 -46 3 -62q0 -47 17 -81q21 -61 81 -81q49 -13 81 -13q55 -4 171 -4q64 0 109 2t61 2q40 0 81 13q62 21 81 81q13 38 13 81zM528 666q89 0 153 -64q65 -65 65 -154t-64 -153q-65 -65 -154 -65q-90 0 -154 64q-64 65 -64 154q0 90 63 154
t155 64zM528 307q58 0 99 41q42 42 42 100q-4 59 -44 100t-97 41q-58 0 -99 -41q-42 -42 -42 -100t41 -99q42 -42 100 -42zM754 725q22 0 36 -14q15 -14 15 -37t-14 -37q-15 -14 -37 -14t-36 14q-15 14 -15 37t14 37q15 14 37 14z" />
    <glyph glyph-name="uniE956" unicode="&#xe956;" 
d="M736 100l-13 9q-15 9 -42 29t-65 52q-39 33 -66 71q-28 39 -28 70q0 51 38 88t90 37q38 0 77 -27q7 -3 13 0q44 27 81 27q53 0 90 -36q38 -36 38 -87q0 -32 -27 -70q-27 -39 -66 -71q-40 -33 -66 -52q-27 -20 -42 -29zM479 255q19 -34 50 -69v-1q-1 0 -1 -1l-48 -32
l-48 32q-49 33 -97 70t-107 91q-60 55 -96 114q-37 59 -37 110q0 94 68 160q68 67 163 67q78 0 157 -61q77 61 149 61q96 0 163 -66q68 -67 68 -161q0 -25 -9 -52q-16 3 -33 3q-32 0 -65 -12q22 35 22 61q0 57 -43 99t-103 42q-30 0 -65 -21q-35 -22 -53 -40l-35 -27l-31 31
q-17 17 -53 37t-69 20q-60 0 -103 -42t-43 -99q0 -58 93 -148t206 -166z" />
    <glyph glyph-name="uniE957" unicode="&#xe957;" 
d="M523 19q-54 0 -91 37t-37 91h256q0 -54 -36 -91q-37 -37 -92 -37zM852 279q14 -7 8 -17v-51q1 -2 1 -6q0 -15 -18 -15h-644q-17 0 -17 21v51q0 9 13 22l68 34h4v72q1 40 2 74q1 35 1 64q1 30 1 48q1 18 1 19q-1 3 -1 9q0 146 167 179v8q0 35 25 60q25 26 60 26t60 -25
q26 -26 26 -61v-8q77 -17 123 -63q47 -47 47 -121v-281h5z" />
    <glyph glyph-name="uniE958" unicode="&#xe958;" 
d="M159 448q-9 0 -15 6t-6 15v265q0 21 21 21h576v94q0 11 8 19t18 8q7 0 13 -6l123 -145q7 -8 7 -20t-7 -18l-123 -145q-5 -8 -15 -8q-9 0 -16 7q-8 7 -8 18v102h-503v-192q0 -9 -6 -15t-15 -6h-52zM885 448q9 0 15 -6t6 -15v-265q0 -21 -21 -21h-576v-94q0 -11 -8 -19
t-18 -8q-7 0 -13 6l-123 145q-7 8 -7 20t7 18l123 145q5 8 15 8q9 0 16 -7q8 -7 8 -18v-102h503v192q0 9 6 15t15 6h52z" />
    <glyph glyph-name="uniE959" unicode="&#xe959;" 
d="M831 426l116 -315q0 -11 -17 -17l-261 -73h-8l-303 68h-13l-222 -68q-19 0 -26 17l43 312q0 16 17 21q8 3 52 20q44 18 81 32q38 15 55 20q6 4 14 1t12 -9q12 -19 55 -89q43 -71 55 -90l13 -13q16 -10 35 -10q32 0 46 23q26 34 86 128l145 55q4 2 7 2q13 0 18 -15z
M522 875q80 0 136 -57t56 -138q0 -42 -39 -120q-40 -79 -75 -132q-36 -54 -67 -96q-4 -6 -11 -6t-11 6q-181 256 -181 348q0 81 56 138t136 57zM522 620q22 0 38 16q17 17 17 39t-16 38q-17 17 -39 17t-38 -16q-17 -17 -17 -39t16 -38q17 -17 39 -17z" />
    <glyph glyph-name="uniE95A" unicode="&#xe95a;" 
d="M944 294q3 -3 1 -8t-5 -5h-55q-45 -117 -144 -188q-99 -72 -219 -72q-121 0 -218 72q-98 72 -140 188h-60q-3 0 -5 5t1 8l98 115q4 4 8 0l98 -115q3 -2 3 -5q1 -3 -1 -5q-2 -3 -6 -3h-51q51 -102 158 -149q4 -4 11 -4q8 0 13 6q6 6 6 15l30 435h-141q-10 0 -16 6t-6 15
v43q0 21 22 21h145l4 43q-43 28 -43 77q0 35 27 60q27 26 63 26q8 0 13 -1q22 -6 39 -23q18 -18 25 -41q4 -18 4 -25q0 -48 -43 -73l5 -43h145q21 0 21 -21v-43q0 -21 -21 -21h-141l34 -435q0 -21 19 -21q7 0 15 4q99 36 162 149h-55q-3 0 -5 5t1 8l98 115q4 4 8 0z" />
    <glyph glyph-name="uniE95B" unicode="&#xe95b;" 
d="M925 400q17 -7 17 -26l-72 -256q-7 -17 -22 -17h-21v-43h-85v43h-427v-43h-85v43h-34q-15 0 -22 17l-72 256v4q0 22 21 22h21v405q0 21 22 21h170q24 12 48 12q46 0 80 -37l-170 -171q-29 34 -29 82q0 14 3 29h-17q-21 0 -21 -21v-320h695zM614 528q0 17 12 29
q13 13 30 13q18 0 30 -12q13 -13 13 -30q0 -18 -12 -30q-13 -13 -31 -13q-17 0 -29 12q-13 13 -13 31zM528 613q0 18 13 30q13 13 30 13q18 0 30 -12q13 -13 13 -31t-12 -30q-13 -13 -31 -13q-17 0 -30 12q-13 13 -13 31zM443 528q0 17 12 29q13 13 31 13q17 0 29 -12
q13 -13 13 -30q0 -18 -12 -30q-13 -13 -30 -13q-18 0 -30 12q-13 13 -13 31zM443 698q0 18 12 30q13 13 31 13q17 0 29 -12q13 -13 13 -31q0 -17 -12 -29q-13 -13 -30 -13q-18 0 -30 12q-13 13 -13 30zM358 613q0 18 12 30q13 13 30 13q18 0 30 -12q13 -13 13 -31t-12 -30
q-13 -13 -31 -13q-17 0 -29 12q-13 13 -13 31z" />
    <glyph glyph-name="uniE95C" unicode="&#xe95c;" 
d="M161 833h717q9 0 18 -8t12 -18v-529q0 -10 -8 -18t-17 -8h-154q-9 0 -13 -4q-19 -12 -81 -56q-62 -45 -114 -84l-52 -39q-5 -4 -13 -4q-4 -2 -7 -2q-16 0 -23 23v141q0 9 -8 17t-18 8h-239q-9 0 -17 8t-8 18v529q0 10 8 18t17 8zM392 495v86h-85v-86h85zM563 495v86h-86
v-86h86zM733 495v86h-85v-86h85z" />
    <glyph glyph-name="uniE95D" unicode="&#xe95d;" 
d="M385 870l128 -119q6 -7 6 -17q0 -21 -23 -21h-81v-692h-89v692h-81q-9 0 -15 5q-6 6 -6 14t8 15l124 123q6 4 16 4t13 -4zM804 183q10 0 16 -7q7 -7 7 -16t-6 -15l-128 -119q-10 -7 -19 -7t-15 7l-128 119q-6 7 -6 17q0 21 23 21h81v692h89v-692h86z" />
    <glyph glyph-name="uniE95E" unicode="&#xe95e;" 
d="M522 875q176 0 301 -125q126 -126 126 -302t-125 -301q-126 -126 -302 -126t-301 125q-126 126 -126 302t125 301q126 126 302 126zM710 606q2 6 2 8q0 9 -7 16q-8 8 -17 8q-2 0 -8 -2l-226 -107q-9 0 -9 -8l-106 -227q-2 -3 -2 -9q0 -10 6 -16q7 -7 16 -7q5 0 9 3
l227 106q8 0 8 9zM496 478q10 9 27 9q15 0 29 -9q13 -11 13 -26t-13 -30q-10 -12 -26 -12t-30 12q-12 11 -12 27t12 29z" />
    <glyph glyph-name="uniE95F" unicode="&#xe95f;" 
d="M676 636q6 2 9 2q10 0 16 -7q7 -7 7 -16q0 -4 -3 -9l-106 -226q0 -9 -9 -9l-226 -106q-4 -3 -9 -3q-9 0 -15 7q-6 8 -6 19v6l107 227q0 8 8 8zM552 422q13 11 13 27q0 14 -13 29q-15 13 -28 13t-28 -13q-12 -13 -12 -29t12 -27q10 -12 27 -12q15 0 29 12zM522 875
q176 0 301 -125q126 -126 126 -302t-125 -301q-126 -126 -302 -126t-301 125q-126 126 -126 302t125 301q126 126 302 126zM522 98q147 0 250 103q104 104 104 251v8q0 141 -104 243q-105 103 -250 103q-147 0 -250 -103q-104 -103 -104 -251q0 -147 103 -250
q104 -104 251 -104z" />
    <glyph glyph-name="uniE960" unicode="&#xe960;" 
d="M449 725v-42h-98v106q0 22 22 22h298q22 0 22 -22v-106h-86v42h-158zM582 307q-31 -30 -31 -84q0 -12 1 -18q7 -43 34 -77h-427q-9 0 -15 6t-6 15v470q0 9 6 15t15 6h726q9 0 15 -6t6 -15v-261q-31 9 -47 9q-41 0 -81 -26v214h-85v-188q-63 -6 -111 -60zM351 213v342h-85
v-342h85zM919 265q14 -21 14 -44q0 -73 -142 -174q-7 -7 -22 0q-149 98 -149 173q0 24 17 45q22 33 59 33q40 0 82 -51q39 51 80 51q16 0 31 -8q16 -9 23 -17z" />
    <glyph glyph-name="uniE961" unicode="&#xe961;" 
d="M449 725v-42h-98v106q0 22 22 22h298q22 0 22 -22v-106h-86v42h-158zM552 213v-8q7 -43 34 -77h-427q-9 0 -15 6t-6 15v470q0 9 6 15t15 6h726q9 0 15 -6t6 -15v-265q-38 9 -47 9q-26 0 -38 -5v197h-86v-192q-12 4 -38 4h-4q-20 0 -43 -9v197h-256v-342h158zM309 213v342
h-86v-342h86zM919 265q14 -21 14 -44q0 -73 -142 -174q-7 -7 -22 0q-149 98 -149 173q0 24 17 45q22 33 59 33q40 0 82 -51q39 51 80 51q16 0 31 -8q16 -9 23 -17z" />
    <glyph glyph-name="uniE962" unicode="&#xe962;" 
d="M449 725v-42h-98v106q0 22 22 22h298q22 0 22 -22v-106h-86v42h-158zM885 640q9 0 15 -6t6 -15v-470q0 -9 -6 -15t-15 -6h-726q-9 0 -15 6t-6 15v470q0 9 6 15t15 6h726zM351 213v342h-85v-342h85zM778 213v342h-85v-342h85z" />
    <glyph glyph-name="uniE963" unicode="&#xe963;" 
d="M449 725v-42h-98v106q0 22 22 22h298q22 0 22 -22v-106h-86v42h-158zM885 640q9 0 15 -6t6 -15v-470q0 -9 -6 -15t-15 -6h-726q-9 0 -15 6t-6 15v470q0 9 6 15t15 6h726zM309 213v342h-86v-342h86zM650 213v342h-256v-342h256zM821 213v342h-86v-342h86z" />
    <glyph glyph-name="uniE964" unicode="&#xe964;" 
d="M650 661q63 -28 102 -88t39 -125v-8q0 -64 -40 -122q-41 -58 -101 -83v426zM526 772q9 6 18 6q20 0 25 -19v-618q0 -11 -7 -17t-16 -6t-15 6l-171 170q-2 0 -8 2q-7 3 -9 3h-184q-21 0 -21 21v256q0 21 21 21h184q13 0 13 5z" />
    <glyph glyph-name="uniE965" unicode="&#xe965;" 
d="M526 772q9 6 18 6q20 0 25 -19v-618q0 -11 -7 -17t-16 -6t-15 6l-171 170q-2 0 -8 2q-7 3 -9 3h-184q-21 0 -21 21v256q0 21 21 21h184q13 0 13 5zM915 538l-90 -90l90 -90l-60 -64l-90 94l-89 -89l-60 59l85 90l-89 90l64 59l89 -89l90 94z" />
    <glyph glyph-name="uniE966" unicode="&#xe966;" 
d="M522 875q176 0 301 -125q126 -126 126 -302t-125 -301q-126 -126 -302 -126t-301 125q-126 126 -126 302q0 177 124 302t303 125zM522 107q141 0 241 100t100 241t-100 241t-241 100t-241 -100t-100 -241t100 -241t241 -100zM688 457q7 -4 7 -11q0 -8 -7 -11l-230 -132
q-7 -3 -14 1q-7 5 -7 12v260q0 9 7 12q7 4 14 1z" />
    <glyph glyph-name="uniE967" unicode="&#xe967;" 
d="M522 875q176 0 301 -125q126 -126 126 -302t-125 -301q-126 -126 -302 -126t-301 125q-126 126 -126 302q0 177 124 302t303 125zM522 107q141 0 241 100t100 241t-100 241t-241 100t-241 -100t-100 -241t100 -241t241 -100zM394 235v426h85v-426h-85zM565 235v426h85
v-426h-85z" />
    <glyph glyph-name="uniE968" unicode="&#xe968;" 
d="M394 491q-79 0 -128 56q-42 48 -42 111q0 81 59 132q47 41 111 41q76 0 128 -58l17 17q46 40 110 40q78 0 129 -57q41 -47 41 -112q0 -79 -58 -127q-47 -41 -112 -41q-79 0 -127 58q-54 -60 -128 -60zM394 747q-35 0 -60 -25t-25 -60t25 -60t60 -25t60 25t25 60t-25 60
t-60 25zM650 436q160 0 290 -103q9 -9 9 -17v-230q0 -21 -22 -21h-810q-22 0 -22 21v230q0 2 9 22q124 98 290 98q73 0 141 -13h8q49 13 107 13zM693 150v107q-88 94 -299 94q-115 0 -213 -64v-137h512z" />
    <glyph glyph-name="uniE969" unicode="&#xe969;" 
d="M942 435l-81 -89q-4 -5 -4 -17l13 -120q0 -6 -5 -13q-6 -8 -12 -8l-116 -26q-4 0 -12 -8l-60 -103q-10 -10 -22 -10q-4 0 -8 2l-107 47q-8 8 -17 0l-106 -47q-8 -2 -10 -2q-15 0 -20 10l-60 103q0 8 -13 8l-115 26q-17 0 -17 21l13 120q0 12 -4 17l-77 85q-14 12 0 26
l77 89q4 4 4 17l-13 120q0 16 17 25l115 26q13 0 13 8l60 103q10 10 20 10q2 0 10 -2l106 -47q9 -8 17 0l107 47q8 2 10 2q15 0 20 -10l60 -103q0 -8 13 -8l115 -26q17 0 17 -21l-13 -120q0 -12 4 -17l81 -89q13 -13 0 -26z" />
    <glyph glyph-name="uniE96A" unicode="&#xe96a;" 
d="M942 435l-81 -89q-4 -5 -4 -17l13 -120q0 -6 -5 -13q-6 -8 -12 -8l-116 -26q-4 0 -12 -8l-60 -103q-10 -10 -22 -10q-4 0 -8 2l-107 47q-8 8 -17 0l-106 -47q-8 -2 -10 -2q-15 0 -20 10l-60 103q0 8 -13 8l-115 26q-17 0 -17 21l13 120q0 12 -4 17l-77 85q-14 12 0 26
l77 89q4 4 4 17l-13 120q0 16 17 25l115 26q13 0 13 8l60 103q10 10 20 10q2 0 10 -2l106 -47q9 -8 17 0l107 47q8 2 10 2q15 0 20 -10l60 -103q0 -3 4 -5q5 -3 8 -3l116 -26q17 0 17 -21l-13 -120q0 -12 4 -17l81 -89q13 -13 0 -26zM443 260l311 316l-55 60l-256 -256
l-98 98l-60 -60z" />
    <glyph glyph-name="uniE96B" unicode="&#xe96b;" 
d="M799 869q22 0 22 -22v-797q0 -11 -7 -17t-16 -6h-4q-2 1 -3 1l-269 115l-269 -115h-3q-2 -1 -4 -1q-9 0 -16 6t-7 17v797q0 22 22 22h554z" />
    <glyph glyph-name="uniE96C" unicode="&#xe96c;" 
d="M799 869q22 0 22 -22v-797q0 -11 -7 -17t-16 -6h-4q-2 1 -3 1l-269 115l-269 -115h-3q-2 -1 -4 -1q-9 0 -16 6t-7 17v797q0 22 22 22h554zM735 143v640h-426v-640l213 90z" />
    <glyph glyph-name="uniE96D" unicode="&#xe96d;" 
d="M95 491v384h384v-384l-128 -214h-170l128 214h-214zM565 875h384v-384l-128 -214h-171l128 214h-213v384z" />
    <glyph glyph-name="uniE96E" unicode="&#xe96e;" 
d="M262 874q4 1 12 1q91 0 150 -77q56 -85 56 -192v-10q-1 -8 -1 -12q-6 -142 -98 -260q-92 -130 -234 -196l-39 77q97 46 171 132q62 83 68 188h-51q-47 0 -98 12q-40 24 -64 43l-12 24q-12 23 -14 36q-13 34 -13 64q0 74 52 119q43 44 115 51zM893 798q56 -85 56 -192v-10
q-1 -8 -1 -12q-6 -142 -98 -260q-92 -131 -235 -196l-38 77q97 46 171 132q62 81 68 188h-51q-47 0 -98 12q-40 24 -64 43q-11 14 -30 55q-9 58 -9 69q0 74 52 119q43 44 115 51q4 1 12 1q91 0 150 -77z" />
    <glyph glyph-name="uniE96F" unicode="&#xe96f;" 
d="M468 205l120 115l55 -55l-119 -120q-64 -64 -152 -64q-87 0 -151 64t-64 152q0 87 64 151l124 119l55 -55l-119 -119q-39 -39 -39 -94q0 -56 39 -94q37 -39 94 -39q55 0 93 39zM387 341q-6 8 -6 15q0 9 6 15l209 209q7 7 15 7q9 0 15 -7l30 -30q7 -7 7 -15q0 -7 -7 -14
l-209 -210q-6 -6 -15 -6t-15 6zM827 751q60 -63 60 -149q0 -90 -64 -154l-120 -119l-55 55l119 119q38 38 38 94q0 57 -38 94q-39 39 -94 39t-94 -39l-119 -119l-56 55l120 124q64 64 151 64q88 0 152 -64z" />
    <glyph glyph-name="uniE970" unicode="&#xe970;" 
d="M101 189q54 163 185 273t301 136v171q4 9 14 15t20 6q5 0 13 -8l307 -316q7 -8 7 -19t-7 -19l-311 -316q-6 -6 -18 -6q-11 0 -20 6q-3 2 -5 6q-2 5 -4 7v175q-258 0 -427 -149q-10 -10 -23 -10q-17 0 -28 14q-9 9 -9 19q0 7 5 15z" />
    <glyph glyph-name="uniE971" unicode="&#xe971;" 
d="M138 107v85h768v-85h-768zM270 277q-6 -3 -11 -1q-6 3 -6 10l-119 188l-5 4q0 19 18 25l42 13q17 0 22 -4l102 -85q8 -5 21 -5l124 35l4 4q11 7 11 19q0 5 -2 11l-132 217l-5 5q-5 16 13 25l43 13q17 0 21 -9l235 -217q7 -16 21 -9l171 47h21q29 -7 47 -30q12 -16 12 -36
q0 -33 -29 -53q-16 -9 -21 -9v0q-74 -18 -305 -79t-293 -79z" />
    <glyph glyph-name="uniE972" unicode="&#xe972;" 
d="M138 107v85h768v-85h-768zM193 439q-12 7 -12 22l-9 222v4q7 18 21 18q3 0 5 -1l47 -13q3 0 7 -4q5 -5 5 -9l47 -128q5 -4 13 -12l124 -39h4q22 0 22 22l-5 256v4q7 18 20 18q4 0 6 -1l43 -13q17 0 17 -13l85 -307q9 -17 17 -17l171 -47q13 0 21 -8q30 -16 30 -47
q0 -26 -17 -45q-17 -20 -43 -24q-1 -3 -10 -2q-10 2 -11 2v0q-46 13 -175 48t-266 71q-137 37 -157 43z" />
    <glyph glyph-name="uniE973" unicode="&#xe973;" 
d="M202 235q-21 0 -21 21v512q0 21 21 21h640q21 0 21 -21v-512q0 -21 -21 -21h-640zM266 704v-384h512v384h-512zM927 192q10 0 16 -6t6 -15v-43q0 -21 -22 -21h-810q-22 0 -22 21v43q0 9 6 15t16 6h810zM309 491v170h170v-170h-170zM309 363v85h170v-85h-170zM522 363v170
h213v-170h-213zM522 576v85h213v-85h-213z" />
    <glyph glyph-name="uniE974" unicode="&#xe974;" 
d="M927 789q22 0 22 -21v-640q0 -21 -22 -21h-810q-22 0 -22 21v640q0 21 22 21h810zM863 192v512h-682v-512h682zM484 324q-10 -5 -18 -5q-12 0 -20 7q-9 8 -9 20v204q0 12 9 19q9 8 21 8q9 0 17 -5l153 -103q13 -9 13 -23q0 -13 -13 -19z" />
    <glyph glyph-name="uniE975" unicode="&#xe975;" 
d="M266 555q0 26 19 45t45 19t45 -19t19 -45q0 -27 -19 -45q-19 -19 -45 -19t-45 18q-19 19 -19 46zM287 277q-10 0 -16 6q-7 7 -7 16q0 8 6 17l68 59q7 7 18 7q10 0 17 -7l47 -46q6 -7 17 -7q10 0 17 7l128 115q6 6 17 6t17 -6l153 -128q6 -5 6 -15t-6 -17t-17 -7h-465z
M927 789q22 0 22 -21v-640q0 -21 -22 -21h-810q-22 0 -22 21v640q0 21 22 21h810zM863 192v512h-682v-512h682z" />
    <glyph glyph-name="uniE976" unicode="&#xe976;" 
d="M927 714q22 0 22 -22v-486q0 -8 -9 -17q-7 -7 -15 -7q-6 0 -15 7l-175 192v132l175 192q11 9 17 9zM629 725q21 0 21 -21v-512q0 -21 -21 -21h-512q-22 0 -22 21v512q0 21 22 21h512z" />
    <glyph glyph-name="uniE977" unicode="&#xe977;" 
d="M458 875q21 0 21 -22v-341q0 -21 -21 -21h-341q-22 0 -22 21v341q0 22 22 22h341zM927 875q22 0 22 -22v-341q0 -21 -22 -21h-341q-21 0 -21 21v341q0 22 21 22h341zM458 405q21 0 21 -21v-341q0 -22 -21 -22h-341q-22 0 -22 22v341q0 21 22 21h341zM927 405q22 0 22 -21
v-341q0 -22 -22 -22h-341q-21 0 -21 22v341q0 21 21 21h341z" />
    <glyph glyph-name="uniE978" unicode="&#xe978;" 
d="M932 661q17 -8 17 -21v-555q0 -9 -6 -15t-16 -6h-810q-10 0 -16 6t-6 15v555q5 14 22 21l657 171q20 0 25 -17l43 -154h90zM731 734l-294 -73h315zM863 149v427h-682v-427h682zM735 316q-25 0 -44 19q-20 20 -20 45t19 44q20 20 45 20t44 -19q20 -20 20 -45
q0 -26 -18 -45t-46 -19z" />
    <glyph glyph-name="uniE979" unicode="&#xe979;" 
d="M932 661q17 -8 17 -21v-555q0 -9 -6 -15t-16 -6h-810q-10 0 -16 6t-6 15v555q5 14 22 21l657 171q20 0 25 -17l43 -154h90zM731 734l-294 -73h315zM735 316q28 0 46 19t18 45q0 25 -19 44q-20 20 -45 20t-44 -19q-20 -20 -20 -45t19 -44q20 -20 45 -20z" />
    <glyph glyph-name="uniE97A" unicode="&#xe97a;" 
d="M927 789q22 0 22 -21v-640q0 -21 -22 -21h-815q-21 0 -21 21v640q0 21 21 21h815zM859 192v256h-683v-256h683zM859 619v85h-683v-85h683z" />
    <glyph glyph-name="uniE97B" unicode="&#xe97b;" 
d="M698 543q0 -69 -52 -119q-52 -51 -123 -51q-73 0 -124 51t-51 124t50 121q51 49 125 49t124 -50q51 -51 51 -125zM522 21q-103 0 -192 46t-149 125q147 131 341 131t341 -131q-60 -79 -149 -125t-192 -46z" />
    <glyph glyph-name="uniE97C" unicode="&#xe97c;" 
d="M787 781q77 -63 118 -151t41 -183q0 -151 -95 -268l-5 4q-138 139 -332 139q-90 0 -174 -34q-85 -34 -151 -100l-4 -5q-90 124 -90 265q0 176 125 301q126 126 302 126q144 0 265 -94zM522 371q71 0 123 50q52 51 52 121q0 73 -50 124q-51 51 -125 51t-124 -49
q-51 -49 -51 -122t50 -124q51 -51 125 -51zM522 235q77 0 150 -31q73 -32 123 -89q-116 -97 -268 -97q-157 0 -278 101q54 55 125 85q72 31 148 31zM522 644q41 0 69 -28q29 -28 29 -70q0 -41 -28 -69q-29 -29 -70 -29t-69 28q-29 29 -29 70q0 42 28 70q29 28 70 28z" />
    <glyph glyph-name="uniE97D" unicode="&#xe97d;" 
d="M846 388l56 -42q4 -5 4 -12q0 -11 -9 -18l-362 -290q-13 -7 -26 0l-367 294q-4 4 -4 11q0 12 9 19l51 38l324 -260zM919 563l-397 -316l-397 316l384 307q13 7 26 0z" />
    <glyph glyph-name="uniE97E" unicode="&#xe97e;" 
d="M876 183q4 -4 4 -17v-59q0 -22 -21 -22h-60q-12 0 -12 5l-214 213q-6 6 -6 15t6 15l60 60q6 6 15 6t15 -6zM684 589q7 -7 7 -15t-7 -15l-273 -273q-7 -7 -15 -7t-15 7l-30 30q-6 6 -6 15q0 8 6 15l30 29q7 9 7 15q0 8 -7 15l-136 137l-30 -30l-47 47q-7 7 -7 15t7 15
l213 213q7 7 15 7t15 -7l43 -47l-30 -30l136 -136q9 -7 15 -7q8 0 15 7l30 30q6 6 15 6t15 -6z" />
    <glyph glyph-name="uniE97F" unicode="&#xe97f;" 
d="M927 175q22 -29 22 -60q0 -38 -28 -66t-66 -28q-31 0 -60 22l-371 371q-42 -19 -92 -19q-10 0 -28 2q-67 10 -120 55q-54 45 -76 111q-13 42 -13 76q0 35 13 74q0 2 2 4t2 4q11 6 19 6q9 0 16 -6l115 -115q7 -7 17 -7t17 7l68 64q7 7 7 17t-7 17l-115 119q0 3 -2 5t-2 4
q-2 6 -2 9q0 17 19 21q37 13 72 13q34 0 73 -13q2 0 6 -2t7 -2q69 -28 110 -89q42 -62 42 -135q0 -43 -16 -84l64 -64v0l95 -96q96 -97 99 -100q3 -4 80 -81q77 -78 33 -34z" />
    <glyph glyph-name="uniE980" unicode="&#xe980;" 
d="M799 576q10 0 16 -6t6 -15v-512q0 -22 -22 -22h-554q-22 0 -22 22v512q0 19 21 21h363v128q0 35 -25 60t-60 25q-50 0 -73 -43h-92q15 56 61 92q46 37 104 37q70 0 120 -50q51 -50 51 -121v-128h106zM522 213q35 0 60 25q25 26 25 61t-25 60t-60 25t-60 -25t-25 -60
t25 -60q25 -26 60 -26z" />
    <glyph glyph-name="uniE981" unicode="&#xe981;" 
d="M799 576q10 0 16 -6t6 -15v-512q0 -22 -22 -22h-554q-22 0 -22 22v512q0 19 21 21h363v128q0 35 -25 60t-60 25q-49 0 -73 -42h-92q14 55 60 91q46 37 105 37q70 0 120 -50q51 -50 51 -121v-128h106zM735 128v363h-426v-384h426v21zM437 299q0 35 25 60t60 25t60 -25
t25 -60t-25 -60q-25 -26 -60 -26t-60 25q-25 26 -25 61z" />
    <glyph glyph-name="uniE982" unicode="&#xe982;" 
d="M415 405q0 44 31 75q32 32 76 32t75 -31q32 -32 32 -76t-31 -75q-32 -31 -76 -31t-75 31q-32 31 -32 75zM927 725q22 0 22 -21v-597q0 -22 -22 -22h-810q-22 0 -22 22v597q0 21 22 21h140q13 0 18 5l72 72q9 9 13 9h324q3 0 8 -3t5 -6l72 -72q3 0 9 -2q6 -3 9 -3h140z
M522 213q80 0 136 56t56 136t-56 136t-136 56t-136 -56t-56 -136t56 -136t136 -56z" />
    <glyph glyph-name="uniE983" unicode="&#xe983;" 
d="M878 141q23 0 30 -22v-42q-7 -22 -25 -22h-722q-9 0 -17 6q-8 7 -8 16v42q0 9 8 15q8 7 17 7h717zM179 252q13 108 88 186q75 79 180 95q22 0 22 22v30q0 25 25 25h47q10 0 18 -8t8 -17v-26q0 -7 6 -14t15 -7q109 -16 184 -94q76 -79 89 -188v-4q0 -12 -7 -19
q-8 -7 -18 -7h-636q-9 0 -15 8t-6 18zM493 695q-9 0 -15 6t-6 16v102q0 10 6 16t15 6h52q9 0 15 -6t6 -16v-102q0 -10 -6 -16t-15 -6h-52zM233 593l-72 73q-7 6 -7 14q0 9 7 15l38 39q15 7 30 0l72 -73q7 -6 7 -15q0 -8 -7 -15l-38 -38q-6 -6 -15 -6t-15 6zM777 593l-39 38
q-6 8 -6 15q0 9 6 15l73 73q14 7 30 0l38 -39q7 -7 7 -15q0 -7 -7 -14l-72 -73q-7 -6 -15 -6q-9 0 -15 6z" />
    <glyph glyph-name="uniE984" unicode="&#xe984;" 
d="M844 130q16 0 22 -21v-43q0 -21 -22 -21h-644q-21 0 -21 21v43q0 21 21 21h644zM887 757q7 -7 7 -15q0 -6 -7 -15l-85 -59q0 -3 -2 -5t-2 -4q-29 -70 -86 -116q-58 -47 -132 -63q-17 -8 -17 -21v-141q0 -21 17 -21q88 -21 132 -90q4 -4 4 -13q0 -21 -21 -21h-363
q-8 8 -8 18q0 7 4 12q51 72 132 85q18 8 18 21v141q0 9 -5 15q-6 6 -13 6q-74 17 -131 65q-58 49 -86 119q0 8 -4 8l-81 69l-5 4q0 1 -1 3q-1 3 -1 5q-1 2 -1 4q0 10 8 18l72 60q0 4 2 12q2 9 2 13h572q0 -7 2 -16q2 -10 2 -14z" />
    <glyph glyph-name="uniE985" unicode="&#xe985;" 
d="M833 725q39 -22 62 -63q24 -41 24 -86v-256q0 -45 -23 -86q-24 -41 -63 -63l-226 -128q-32 -22 -81 -22q-51 0 -89 26l-222 128q-39 23 -62 62q-24 39 -24 83v252q0 44 24 85t62 64l222 128q38 26 89 26q42 0 86 -22z" />
    <glyph glyph-name="uniE986" unicode="&#xe986;" 
d="M774 661q28 -15 43 -44q16 -30 16 -62v-214q0 -35 -17 -64q-18 -30 -47 -47l-183 -106q-29 -16 -59 -16q-34 0 -65 20l-183 107q-29 16 -46 45q-18 29 -18 61v214q0 32 17 61q18 29 47 45l188 107q28 16 61 16q34 0 62 -16zM833 725q39 -22 62 -63q24 -41 24 -86v-256
q0 -45 -23 -86q-24 -41 -63 -63l-226 -128q-32 -22 -81 -22q-51 0 -89 26l-222 128q-39 23 -62 62q-24 39 -24 83v252q0 44 24 85t62 64l222 128q38 26 89 26q42 0 86 -22zM863 320v256q0 33 -15 62q-16 29 -44 45l-222 128q-33 12 -56 12q-35 0 -64 -17l-222 -128
q-29 -14 -46 -41q-18 -27 -18 -56v-261q0 -32 17 -59q18 -27 47 -43l222 -128q29 -17 64 -17q34 0 56 17l222 123q26 17 42 46q17 29 17 61z" />
    <glyph glyph-name="uniE987" unicode="&#xe987;" 
d="M528 710q7 7 15 7t15 -7l141 -140q6 -6 6 -15t-6 -15q-6 -7 -15 -7h-141q-8 0 -14 6q-7 7 -7 16v140q0 9 6 15zM857 625q6 -6 6 -15v-567q0 -9 -6 -15q-6 -7 -15 -7h-640q-9 0 -15 6q-6 7 -6 16v810q0 9 6 15q6 7 15 7h397q8 0 15 -7zM778 107v478l-205 204h-307v-682
h512z" />
    <glyph glyph-name="uniE988" unicode="&#xe988;" 
d="M351 363v89h342v-89h-342zM351 235v85h342v-85h-342zM351 491v85h342v-85h-342zM842 832q21 0 21 -21v-768q0 -22 -21 -22h-640q-7 0 -14 6q-7 7 -7 16v768q0 9 7 15t14 6h107v21q0 9 7 15q7 7 14 7h43q9 0 15 -6t6 -16v-21h85v21q0 9 7 15q8 7 15 7h42q22 0 22 -22v-21
h85v21q0 9 7 15q7 7 14 7h43q21 0 21 -22v-21h107zM778 107v640h-43v-22q0 -21 -21 -21h-43q-7 0 -14 6q-7 7 -7 15v22h-85v-22q0 -9 -6 -15t-16 -6h-42q-7 0 -14 6q-8 7 -8 15v22h-85v-22q0 -9 -6 -15t-15 -6h-43q-7 0 -14 6t-7 15v22h-43v-640h512z" />
    <glyph glyph-name="uniE989" unicode="&#xe989;" 
d="M923 875q10 0 18 -8t8 -18v-589q0 -10 -8 -17q-8 -8 -18 -8h-171q-12 0 -17 -5l-273 -200q-2 0 -6 -2t-7 -2q-2 -1 -6 -1q-21 0 -28 26v158q0 10 -7 18q-8 8 -18 8h-269q-10 0 -18 7q-8 8 -8 18v589q0 10 8 18t18 8h802zM531 418l17 13q18 12 33 23q15 12 37 31
q23 19 38 36q16 18 28 38q12 21 13 38q0 41 -30 69q-30 29 -72 29q-37 0 -64 -21q-7 -6 -13 0q-36 21 -64 21q-3 1 -7 1q-39 0 -67 -29q-29 -30 -29 -70q0 -32 39 -75t72 -67q34 -24 51 -33l9 -8z" />
    <glyph glyph-name="uniE98A" unicode="&#xe98a;" 
d="M479 405v342h-85l128 128l128 -128h-85v-342h-86zM842 661q21 0 21 -21v-597q0 -22 -21 -22h-640q-21 0 -21 22v597q0 21 21 21h192v-85h-128v-469h512v469h-128v85h192z" />
    <glyph glyph-name="uniE98B" unicode="&#xe98b;" 
d="M943 189q5 -9 5 -19v-8q-1 -5 -1 -7q-11 -14 -28 -14q-13 0 -23 10q-162 143 -435 149v-175q-3 -2 -5 -6q-2 -5 -4 -7q-9 -6 -21 -6q-11 0 -17 6l-312 316q-6 9 -6 19t6 19l307 316q10 8 13 8q11 0 20 -6q10 -6 10 -15v-171q170 -26 303 -136q133 -111 188 -273z" />
    <glyph glyph-name="uniE98C" unicode="&#xe98c;" 
d="M479 578v85h86v-85h-86zM479 279v256h86v-256h-86zM944 463q8 -15 0 -30l-106 -107q0 -2 -2 -8q-3 -6 -3 -9v-149q0 -21 -21 -21h-149q-13 0 -17 -5l-107 -106q-6 -7 -15 -7t-15 7l-106 106q-3 0 -9 2q-6 3 -9 3h-149q-21 0 -21 21v149q0 13 -4 17l-107 107q-7 7 -7 15
t7 15l107 107q0 2 2 8t2 9v149q0 21 21 21h150q2 0 8 2q6 3 9 3l106 106q7 7 15 7q9 0 15 -7l107 -106q2 0 8 -2q7 -3 9 -3h149q21 0 21 -21v-149q0 -13 5 -17zM752 352l94 102l-94 94v137h-136l-94 94l-98 -98h-137v-137l-94 -94l90 -89q0 -3 2 -9q2 -7 2 -9v-128h128
q13 0 17 -4l90 -89l94 93h136v137z" />
    <glyph glyph-name="uniE98D" unicode="&#xe98d;" 
d="M761 521q9 0 14 -7q6 -7 6 -16q0 -6 -3 -12l-307 -456q-7 -9 -18 -9q-8 0 -14 6q-7 6 -7 16v320q0 21 -21 21h-124q-9 0 -14 5q-6 6 -6 14q0 5 3 11l265 452q5 9 15 9t18 -6t9 -16l-4 -311q0 -21 22 -21h166z" />
    <glyph glyph-name="uniE98E" unicode="&#xe98e;" 
d="M944 145q5 -4 5 -13q0 -10 -6 -17q-7 -8 -16 -8h-810q-9 0 -9 4q-13 8 -13 21q0 6 5 13l405 636q8 8 17 8t17 -8zM236 196h572l-286 448zM479 235v85h86v-85h-86zM479 363v170h86v-170h-86z" />
    <glyph glyph-name="uniE98F" unicode="&#xe98f;" 
d="M944 145q5 -4 5 -13q0 -10 -6 -18q-7 -8 -16 -8h-810q-9 0 -9 5q-13 8 -13 20q0 6 5 14l401 631q7 9 8 9q8 5 14 5q12 0 16 -9zM565 196v81h-86v-81h86zM565 320v243h-86v-243h86z" />
    <glyph glyph-name="uniE990" unicode="&#xe990;" 
d="M919 875q22 0 30 -26v-802q0 -12 -8 -19t-18 -7h-802q-26 0 -26 22v806q0 26 26 26h798zM422 205l395 397l-76 72l-319 -320l-123 124l-72 -73z" />
    <glyph glyph-name="uniE991" unicode="&#xe991;" 
d="M919 875q22 0 30 -26v-802q0 -12 -8 -19t-18 -7h-802q-26 0 -26 22v806q0 26 26 26h798zM860 107v682h-680v-682h680z" />
    <glyph glyph-name="uniE992" unicode="&#xe992;" 
d="M415 132q0 44 31 75q32 32 76 32t75 -31q32 -32 32 -76t-31 -75q-32 -31 -76 -31t-75 31q-32 31 -32 75zM415 772q0 44 31 75q32 32 76 32t75 -31q32 -32 32 -76t-31 -75q-32 -31 -76 -31t-75 31q-32 31 -32 75zM415 452q0 44 31 75q32 32 76 32t75 -31q32 -32 32 -76
t-31 -75q-32 -31 -76 -31t-75 31q-32 31 -32 75z" />
    <glyph glyph-name="uniE993" unicode="&#xe993;" 
d="M95 452q0 44 31 75q32 32 76 32t75 -31q32 -32 32 -76t-31 -75q-32 -31 -76 -31t-75 31q-32 31 -32 75zM735 452q0 44 31 75q32 32 76 32t75 -31q32 -32 32 -76t-31 -75q-32 -31 -76 -31t-75 31q-32 31 -32 75zM415 452q0 44 31 75q32 32 76 32t75 -31q32 -32 32 -76
t-31 -75q-32 -31 -76 -31t-75 31q-32 31 -32 75z" />
    <glyph glyph-name="uniE994" unicode="&#xe994;" 
d="M927 310q4 -2 5 -4q2 -3 4 -11t3 -10l-84 -145q-16 -14 -26 -8l-102 42q-42 -34 -72 -42l-17 -102q0 -9 -25 -9h-170q-26 0 -26 9l-17 102q-9 3 -19 8t-16 9l-18 12q-13 9 -19 13l-102 -38q-21 0 -25 8l-85 145q-9 18 4 25l85 68q-4 13 -4 43q0 9 2 22q2 14 2 20l-93 68
q-14 6 -5 26l90 144q15 15 25 8l102 -34q14 10 40 24q26 15 32 19l13 114q0 11 25 39h170q9 0 17 -11q9 -12 9 -19l17 -123q14 -5 72 -43l102 43q14 7 25 -4l81 -153q9 -20 -5 -26l-89 -72q5 -13 5 -42q0 -9 -2 -23q-3 -14 -3 -20zM519 276q63 0 103 43q41 44 41 106
q0 58 -42 101t-102 43q-59 0 -101 -45q-43 -45 -43 -104q0 -58 42 -101q43 -43 102 -43z" />
    <glyph glyph-name="uniE995" unicode="&#xe995;" 
d="M825 751q124 -124 124 -301q0 -180 -128 -305q-127 -125 -301 -125q-176 0 -301 125t-125 303t125 303t303 125t303 -125zM283 205l482 482q-99 99 -239 99q-141 0 -243 -99t-102 -240q0 -140 102 -242z" />
    <glyph glyph-name="uniE996" unicode="&#xe996;" 
d="M799 576q10 0 16 -6t6 -15v-512q0 -22 -22 -22h-554q-22 0 -22 22v512q0 9 6 15t16 6h106v128q0 71 50 121q51 50 121 50t120 -50q51 -50 51 -121v-128h106zM522 213q35 0 60 25q25 26 25 61t-25 60t-60 25t-60 -25t-25 -60t25 -60q25 -26 60 -26zM607 576v128
q0 35 -25 60t-60 25t-60 -25t-25 -60v-128h170z" />
    <glyph glyph-name="uniE997" unicode="&#xe997;" 
d="M799 576q10 0 16 -6t6 -15v-512q0 -22 -22 -22h-554q-22 0 -22 22v512q0 9 6 15t16 6h106v128q0 71 50 121q51 50 121 50t120 -50q51 -50 51 -121v-128h106zM437 704v-128h170v128q0 35 -25 60t-60 25t-60 -25t-25 -60zM735 128v363h-426v-384h426v21zM437 299
q0 35 25 60t60 25t60 -25t25 -60t-25 -60q-25 -26 -60 -26t-60 25q-25 26 -25 61z" />
    <glyph glyph-name="uniE998" unicode="&#xe998;" 
d="M522 875q176 0 301 -125q126 -126 126 -302t-125 -301q-126 -126 -302 -126t-301 125q-126 126 -126 302t125 301q126 126 302 126zM437 226l358 359l-68 68l-290 -290l-111 111l-69 -69z" />
    <glyph glyph-name="uniE999" unicode="&#xe999;" 
d="M226 188q10 0 21 -4q146 -63 148 -64l-141 -3q-23 0 -39 13t-16 32q0 26 27 26zM265 667l-64 -149l-2 142q0 23 13 39t31 16q14 0 22 -10q4 -7 4 -17t-4 -21zM938 448q11 -13 11 -29q0 -21 -19 -42l-102 -98l60 150q11 27 31 27q9 0 19 -8zM156 429l59 -150l-101 99
q-19 17 -19 42q0 17 11 28q10 8 19 8q20 0 31 -27zM818 188q27 0 27 -26q0 -19 -16 -32t-39 -13l-141 3l148 64q11 4 21 4zM843 519l-64 148q-5 13 -5 21q0 9 5 17q8 10 22 10q18 0 31 -16t13 -39zM177 297q111 -113 113 -116l-132 53q-21 8 -31 27q-6 10 -6 21q0 7 3 14
q8 16 23 16t30 -15zM897 312q15 0 23 -16q3 -7 3 -14q0 -11 -6 -21q-10 -19 -31 -27l-132 -53l113 116q15 15 30 15zM781 624l-61 58q-26 28 -26 63q0 13 4 21q5 13 12 13q10 0 19 -23zM324 682l-61 -58l52 132q9 23 19 23q7 0 12 -13q4 -8 4 -21q0 -35 -26 -63zM184 397
l-56 130q-5 13 -5 25q0 5 2 17q7 20 23 26q6 3 12 3q12 0 19 -11q8 -11 8 -28zM916 527l-56 -130l-3 162q0 17 7 28q8 11 20 11q6 0 12 -3q15 -6 22 -26q3 -9 3 -17q0 -12 -5 -25zM768 417q8 -22 8 -43q0 -40 -23 -73t-61 -47q-22 -8 -43 -8q-27 0 -53 12q-30 14 -47 37
l-28 -41l-27 40q-39 -47 -99 -47q-53 0 -90 37t-37 90q0 42 25 75q-3 11 -9 23q-6 13 -11 20l-5 7h80q73 48 174 48q96 0 169 -47h85q-19 -25 -25 -51q11 -14 17 -32zM395 273q42 0 72 29q30 30 30 72t-30 71q-30 30 -72 30t-71 -29q-30 -30 -30 -72t29 -71q30 -30 72 -30z
M522 383q1 22 11 44q24 48 72 66q18 7 40 7q-54 25 -124 25q-65 0 -123 -24q49 -1 84 -35q36 -34 40 -83zM606 281q21 -9 43 -9q17 0 35 6q30 11 48 37q18 27 18 59q0 17 -6 35q-11 30 -37 48q-27 18 -59 18q-17 0 -35 -6q-38 -15 -57 -53q-9 -21 -9 -42q0 -18 6 -36
q15 -38 53 -57zM394 438q26 0 44 -18q18 -19 18 -45t-18 -44q-18 -19 -44 -19t-44 18q-19 19 -19 45t18 44q19 19 45 19zM394 334q17 0 29 12t12 29t-12 29t-29 12t-29 -12t-12 -29t12 -29t29 -12zM394 396q8 0 14 -6q7 -6 7 -15t-6 -15q-7 -6 -15 -6q-9 0 -15 6t-6 15t6 15
t15 6zM649 438q26 0 44 -18q18 -19 18 -45t-18 -44q-18 -19 -44 -19t-44 18q-19 19 -19 45t18 44q19 19 45 19zM649 334q17 0 29 12t12 29t-12 29t-29 12t-29 -12q-13 -12 -13 -29t12 -29q13 -12 30 -12zM649 396q8 0 14 -6t6 -15t-6 -15t-14 -6q-9 0 -15 6q-7 6 -7 15t6 15
q7 6 16 6z" />
    <glyph glyph-name="uniE99A" unicode="&#xe99a;" 
d="M720 597q-45 0 -76 31t-31 76t31 76t76 31t76 -31t31 -76t-31 -76t-76 -31zM319 597q-45 0 -76 31t-31 76q4 41 35 72t72 35q45 0 76 -31t31 -76t-31 -76t-76 -31zM942 375q9 -18 -4 -25l-30 -30q-6 -6 -15 -6t-15 6l-47 47l38 -154h-42v-106q0 -22 -22 -22h-42
q-22 0 -22 22v106h-42v-106q0 -22 -22 -22h-42q-22 0 -22 22v106h-42l30 154l-47 -47q-8 -6 -15 -6q-9 0 -15 6l-9 9l-8 -9q-7 -6 -15 -6q-9 0 -15 6l-51 51v-264q0 -22 -22 -22h-42q-22 0 -22 22v106h-42v-106q0 -22 -22 -22h-42q-10 0 -15 5q-6 6 -2 12v265l-52 -51
q-7 -7 -15 -7q-7 0 -14 7l-30 30q-7 6 -7 15q0 8 7 14q111 133 115 133q4 4 12 10q9 7 13 11q38 29 83 29q68 0 109 -55q56 -64 86 -102l94 107q4 4 12 10q9 7 13 11q38 29 82 29q69 0 110 -55z" />
    <glyph glyph-name="uniE99B" unicode="&#xe99b;" 
d="M492 945q15 15 30 15v-901q-2 0 -7 -2q-5 -3 -8 -3l-266 -113q-5 -5 -15 -5q-12 0 -21 10q-10 11 -10 26l21 312q0 8 -11 26l-189 235q-5 5 -5 11q-1 2 -1 8q0 25 27 33l281 71q11 6 20 16z" />
    <glyph glyph-name="uniE99C" unicode="&#xe99c;" horiz-adv-x="1044" 
d="M1007 597q27 -8 27 -33q0 -6 -1 -8l-5 -11l-189 -235q-11 -18 -11 -26l21 -312q0 -15 -9 -25q-10 -11 -22 -11q-10 0 -15 5l-266 113q-3 0 -8 2q-5 3 -7 3t-7 -2q-5 -3 -8 -3l-266 -113q-5 -5 -15 -5q-12 0 -21 10q-10 11 -10 26l21 312q0 8 -11 26l-189 235q-5 5 -5 11
q-1 2 -1 8q0 25 27 33l281 71q11 6 20 16l154 261q15 15 30 15t30 -15l154 -261q9 -10 20 -16z" />
    <glyph glyph-name="uniE99D" unicode="&#xe99d;" 
d="M437 661q0 71 49 121q50 50 121 50t121 -50t50 -121t-50 -120q-50 -50 -121 -50t-120 50q-50 50 -50 120zM927 64h-640q-9 0 -15 6t-6 15v184q0 8 4 13q63 80 151 123q89 43 186 43q144 0 261 -90q44 -32 76 -76q5 -5 5 -13v-184q0 -9 -6 -15t-16 -6zM394 704v-85h-128
v-128h-85v128h-128v85h128v128h85v-128h128z" />
    <glyph glyph-name="uniE99E" unicode="&#xe99e;" 
d="M351 661q0 71 50 121t121 50t121 -50t50 -121q0 -70 -50 -120t-121 -50t-121 50t-50 120zM842 64h-640q-21 0 -21 21v184q0 8 4 13q62 80 151 123t185 43q146 0 261 -90q45 -31 77 -76q4 -5 4 -13v-184q0 -21 -21 -21z" />
    <glyph glyph-name="uniE99F" unicode="&#xe99f;" 
d="M944 461q7 -13 0 -26l-196 -234q-7 -9 -17 -9h-614q-10 0 -16 6t-6 15v470q0 9 6 15t16 6h614q10 0 17 -9zM765 422q13 13 13 30q0 18 -13 30q-12 13 -30 13q-17 0 -30 -13q-12 -12 -12 -30q0 -17 12 -30q13 -12 30 -12q18 0 30 12z" />
    <glyph glyph-name="uniE9A0" unicode="&#xe9a0;" 
d="M876 805l30 -307q0 -13 -4 -17l-431 -431q-6 -6 -15 -6t-15 6l-333 333q-6 6 -6 15t6 15l431 435q4 4 17 4l299 -25q21 -8 21 -22zM718 630q20 0 31 11q12 12 12 32t-11 31q-12 12 -32 12q-19 0 -30 -12q-12 -12 -12 -31t11 -31q12 -12 31 -12z" />
    <glyph glyph-name="uniE9A1" unicode="&#xe9a1;" 
d="M927 875q7 0 14 -6q8 -7 8 -16v-200q0 -11 -7 -17t-17 -6q-9 0 -15 6l-72 72l-214 -213l-59 60l213 213l-68 68q-5 6 -5 15q0 10 6 17q7 7 16 7h200zM117 21q-22 0 -22 22v200q0 11 7 18t16 7q6 0 11 -3l73 -73l213 213l60 -59l-213 -214l72 -72q5 -6 5 -15q0 -10 -6 -17
q-7 -7 -16 -7h-200z" />
    <glyph glyph-name="uniE9A2" unicode="&#xe9a2;" 
d="M431 832h475v-475h-119v272l-373 -373l-84 84l373 373h-272v119z" />
    <glyph glyph-name="uniE9A3" unicode="&#xe9a3;" 
d="M101 465l379 371q8 5 15 5q10 0 17 -7t7 -11v-226q0 -21 21 -21h388q21 0 21 -21v-214q0 -21 -21 -21h-388q-21 0 -21 -21v-226q0 -4 -7 -11t-17 -7q-7 0 -15 5q-83 84 -379 375q-6 6 -6 15t6 15z" />
    <glyph glyph-name="uniE9A4" unicode="&#xe9a4;" 
d="M450 810v1q7 7 18 7q12 0 19 -8l38 -37q8 -8 8 -19t-8 -19l-234 -234h628q11 0 18 -7q8 -8 8 -19v-54q0 -11 -7 -18q-8 -8 -19 -8h-628l234 -234q8 -8 8 -19t-8 -19l-38 -37q-7 -8 -19 -8q-11 0 -18 8l-344 343q-7 7 -7 19t7 19z" />
    <glyph glyph-name="uniE9A5" unicode="&#xe9a5;" 
d="M885 832q6 0 13 -7q8 -8 8 -14v-726q0 -9 -6 -15t-15 -6h-726q-9 0 -15 6t-6 15v726q0 7 6 14q7 7 15 7h726zM769 427q2 2 9 17q0 21 -21 21h-150v218q0 7 -6 14t-15 7h-128q-9 0 -15 -7t-6 -14v-222h-154q-8 0 -13 -4q-6 -8 -6 -15q0 -9 6 -15l235 -231q6 -6 15 -6t15 6
z" />
    <glyph glyph-name="uniE9A6" unicode="&#xe9a6;" 
d="M910 406q-311 -319 -371 -379q-6 -6 -15 -6t-15 6q-291 296 -375 379q-5 7 -5 15q0 10 7 17t11 7h226q21 0 21 21v388q0 21 21 21h214q21 0 21 -21v-388q0 -21 21 -21h226q4 0 11 -7t7 -17q0 -8 -5 -15z" />
    <glyph glyph-name="uniE9A7" unicode="&#xe9a7;" 
d="M885 376h-1l-343 -344q-7 -7 -19 -7t-19 7l-344 344q-7 7 -7 18q0 12 7 19l38 38q8 8 19 8t19 -8l234 -234v628q0 11 7 18q8 8 19 8h54q11 0 18 -7q8 -8 8 -19v-628l234 234q8 8 19 8q9 0 19 -8l37 -38q8 -7 8 -19q0 -11 -7 -18z" />
    <glyph glyph-name="uniE9A8" unicode="&#xe9a8;" 
d="M564 836q319 -311 379 -371q6 -6 6 -15t-6 -15q-296 -291 -379 -375q-8 -5 -15 -5q-10 0 -17 7t-7 11v226q0 21 -21 21h-388q-21 0 -21 21v214q0 21 21 21h388q21 0 21 21v226q0 4 7 11t17 7q7 0 15 -5z" />
    <glyph glyph-name="uniE9A9" unicode="&#xe9a9;" 
d="M594 811v-1l344 -343q7 -7 7 -19t-7 -19l-344 -343q-7 -8 -18 -8q-12 0 -19 8l-38 37q-8 8 -8 19t8 19l234 234h-628q-11 0 -18 7q-8 8 -8 19v54q0 11 7 18q8 8 19 8h628l-234 234q-8 8 -8 19t8 19l38 37q7 8 19 8q11 0 18 -7z" />
    <glyph glyph-name="uniE9AA" unicode="&#xe9aa;" 
d="M885 832q7 0 14 -6q7 -7 7 -15v-726q0 -9 -6 -15t-15 -6h-726q-9 0 -15 6t-6 15v726q0 9 6 15t15 6h726zM765 435q7 7 7 15t-7 15l-234 230q-7 7 -15 7q-9 0 -15 -7l-235 -230q0 -2 -2 -6t-2 -7q0 -21 21 -21h154v-218q0 -21 21 -21h128q21 0 21 21v218h150z" />
    <glyph glyph-name="uniE9AB" unicode="&#xe9ab;" 
d="M539 869l371 -379q5 -7 5 -15q0 -10 -7 -17t-11 -7h-226q-21 0 -21 -21v-388q0 -21 -21 -21h-214q-21 0 -21 21v388q0 21 -21 21h-226q-4 0 -11 7t-7 17q0 8 5 15q84 83 375 379q6 6 15 6t15 -6z" />
    <glyph glyph-name="uniE9AC" unicode="&#xe9ac;" 
d="M884 520h1q7 -7 7 -18q0 -12 -8 -19l-37 -38q-8 -8 -19 -8t-19 8l-234 234v-628q0 -11 -7 -18q-8 -8 -19 -8h-54q-11 0 -18 7q-8 8 -8 19v628l-234 -234q-8 -8 -19 -8t-19 8l-38 38q-7 7 -7 19q0 11 7 18l344 344q7 7 19 7t19 -7z" />
    <glyph glyph-name="uniE9AD" unicode="&#xe9ad;" 
d="M161 528q6 82 52 165q46 84 118 138q6 3 12 3q9 0 16 -5q7 -6 7 -15q0 -57 7 -120q8 -64 36 -149q29 -85 76 -132q114 -114 384 -205q16 -5 16 -18q0 -9 -7 -16q-56 -53 -139 -82q-84 -30 -164 -30q-20 0 -30 1q-165 15 -275 137q-111 123 -111 288q0 14 2 40z" />
    <glyph glyph-name="uniE9AE" unicode="&#xe9ae;" 
d="M522 875q176 0 301 -125q126 -126 126 -302t-125 -301q-126 -126 -302 -126t-301 125q-126 126 -126 302t125 301q126 126 302 126zM253 239q49 -64 120 -98t148 -34q115 0 210 72l-478 478q-72 -92 -72 -209t72 -209zM791 239q72 92 72 209t-72 209q-49 64 -120 98
t-148 34q-115 0 -210 -72z" />
    <glyph glyph-name="uniE9AF" unicode="&#xe9af;" 
d="M223 47v631q0 10 8 18t18 8h546q12 0 19 -8t7 -18v-631q0 -10 -8 -18t-18 -8h-546q-10 0 -18 8t-8 18zM838 832q10 0 17 -6q8 -6 8 -15v-43q0 -9 -7 -15t-14 -6h-636q-10 0 -17 6q-8 6 -8 15v43q0 9 7 15q8 6 18 6h137q2 0 8 2q7 2 9 2l34 34q2 0 8 2q7 3 9 3h222
q4 0 9 -2q6 -3 8 -3l34 -34q2 0 8 -2q7 -2 9 -2h137z" />
    <glyph glyph-name="uniE9B0" unicode="&#xe9b0;" 
d="M179 578h42q22 0 22 -21v-171q0 -21 -22 -21h-42q-22 0 -22 21v171q0 21 22 21zM285 565q0 15 17 22l555 162h4q16 0 26 -22v-494q-7 -19 -19 -19h-3q-3 1 -4 1l-115 30q-17 7 -26 -8q-26 -42 -70 -66q-45 -24 -94 -24q-14 0 -40 4q-64 13 -105 61q-42 49 -49 114
q-4 14 -17 22l-43 13q-17 5 -17 21v183zM537 245q14 -2 22 -2q45 0 72 32l-171 47q7 -29 28 -51t49 -26z" />
    <glyph glyph-name="uniE9B1" unicode="&#xe9b1;" 
d="M138 341l38 17q3 1 8 1q12 0 22 -10l77 -154q2 -4 2 -7q0 -12 -10 -22l-39 -17q-2 -2 -7 -2q-11 0 -23 10l-76 154q-5 7 -5 13q0 12 13 17zM240 379q-8 15 5 21l426 389l5 4q4 3 11 3q12 0 18 -12l214 -448v-4q0 -19 -17 -26l-115 -21q-7 0 -12 -5t-5 -12
q-7 -58 -48 -103q-41 -46 -98 -59q-24 -6 -50 -6q-52 0 -97 25t-70 70q-6 13 -21 13l-43 -8q-15 0 -21 13zM607 200q26 3 44 23t25 49l-175 -34q30 -41 83 -41q12 0 23 3z" />
    <glyph glyph-name="uniE9B2" unicode="&#xe9b2;" 
d="M186 40v240h288v-240h-288zM829 664h77v-96h-48v-192h-288v192h-96v-192h-288v192h-48v96h77q-5 10 -5 24q0 68 50 118t118 50q45 0 83 -22q39 -23 61 -60q22 37 60 59q39 23 84 23q68 0 118 -50t50 -118q0 -5 -2 -12q-3 -7 -3 -12zM445 664q5 10 5 24q0 29 -22 50
q-22 22 -50 22t-50 -21q-22 -22 -22 -51q0 -19 5 -24h134zM733 664q5 10 5 24q0 29 -22 50q-22 22 -50 22t-50 -21q-22 -22 -22 -51q0 -14 5 -24h134zM570 40v240h288v-240h-288z" />
    <glyph glyph-name="uniE9B3" unicode="&#xe9b3;" 
d="M522 597q-45 0 -76 31t-31 76q4 45 35 76q32 31 76 31q45 0 76 -31t31 -76q-3 -45 -34 -76q-32 -31 -77 -31zM748 375q5 -5 5 -11q0 -9 -9 -18l-30 -30q-6 -7 -15 -7t-15 7l-47 47l30 -150h-43v-106q0 -22 -21 -22h-43q-9 0 -15 6t-6 16v106h-43v-106q0 -22 -21 -22h-43
q-9 0 -15 6t-6 16v102h-43l39 154l-51 -47q-7 -7 -15 -7q-9 0 -15 7l-30 30q-7 7 -7 15q0 7 7 14q115 133 119 133q10 16 22 21q41 30 89 30q70 0 111 -56z" />
    <glyph glyph-name="uniE9B4" unicode="&#xe9b4;" 
d="M432 787q0 35 26 60q27 26 64 26t63 -25q27 -26 27 -61t-26 -60q-27 -25 -64 -25t-63 25q-27 25 -27 60zM735 412q1 -3 1 -7q0 -17 -13 -23l-43 -13q-17 0 -21 9q-2 0 -12 32t-19 64l-8 32l-4 -188l21 -269q0 -21 -17 -21l-47 -5q-10 0 -17 6q-8 7 -8 16l-22 239h-4
q-21 -243 -26 -248q-6 -13 -21 -13l-47 5q-6 0 -11 6q-6 6 -6 15l21 273l-4 196l-34 -128q0 -7 -5 -12q-6 -6 -14 -6h-3q-2 1 -4 1l-42 13q-18 7 -18 19q0 4 1 7q55 183 59 192q2 2 3 4l3 3t3 1q10 11 30 17q46 30 119 30q75 0 115 -30q20 -6 30 -17q9 0 9 -8z" />
    <glyph glyph-name="uniE9B5" unicode="&#xe9b5;" 
d="M927 789q22 0 22 -21v-640q0 -21 -22 -21h-810q-22 0 -22 21v640q0 21 22 21h810zM863 619v85l-341 -213l-341 213v-85l341 -214z" />
    <glyph glyph-name="uniE9B6" unicode="&#xe9b6;" 
d="M161 832h717q10 0 18 -7q9 -8 12 -18v-529q0 -10 -8 -18t-17 -8h-154q-9 0 -13 -4q-19 -12 -81 -56q-62 -45 -114 -84l-52 -39q-5 -5 -13 -5h-7q-9 0 -16 6q-7 7 -7 16v141q0 9 -8 17t-18 8h-239q-9 0 -17 8t-8 18v529q0 10 8 17q8 8 17 8z" />
    <glyph glyph-name="uniE9B7" unicode="&#xe9b7;" 
d="M827 756h-614v-427h290v-141l170 141h154v427zM161 832h717q10 0 18 -7q9 -8 12 -18v-529q0 -10 -8 -18t-17 -8h-154q-9 0 -13 -4q-19 -12 -81 -56q-62 -45 -114 -84l-52 -39q-5 -5 -13 -5h-7q-9 0 -16 6q-7 7 -7 16v141q0 9 -8 17t-18 8h-239q-9 0 -17 8t-8 18v529
q0 10 8 17q8 8 17 8z" />
    <glyph glyph-name="uniE9B8" unicode="&#xe9b8;" 
d="M927 806q22 -8 22 -26v-632q0 -9 -8 -17t-18 -8h-8q-64 14 -124 14q-138 0 -256 -65q-13 -7 -26 0q-122 67 -255 67q-65 0 -125 -16h-8q-10 0 -18 8t-8 17v632q0 23 22 30q89 17 140 17h12q9 1 14 1q127 0 222 -57q12 -6 26 0q105 57 229 57h13q9 -1 14 -1q67 0 140 -21z
" />
    <glyph glyph-name="uniE9B9" unicode="&#xe9b9;" 
d="M309 444q0 89 62 151q63 62 151 62t150 -62q63 -62 63 -151t-62 -151q-63 -63 -151 -63t-150 62q-63 63 -63 152zM266 644l-60 60q-6 6 -6 15t6 15l30 30q6 6 15 6t15 -6l60 -60q6 -6 6 -15t-6 -15l-30 -30q-6 -6 -15 -6t-15 6zM782 247l60 -59q6 -7 6 -15q0 -9 -6 -15
l-30 -30q-6 -6 -15 -6q-7 0 -15 6l-59 60q-7 6 -7 15q0 8 7 15l29 29q7 7 15 7q9 0 15 -7zM752 640l-29 30q-7 6 -7 15q0 8 7 15l59 59q7 7 15 7q9 0 15 -7l30 -29q6 -7 6 -15q0 -9 -6 -15l-60 -60q-6 -6 -15 -6q-7 0 -15 6zM296 247l30 -29q6 -7 6 -15q0 -9 -6 -15l-60 -60
q-6 -6 -15 -6t-15 6l-30 30q-6 6 -6 15q0 8 6 15l60 59q6 7 15 7t15 -7zM223 427q0 -22 -21 -22h-85q-22 0 -22 22v42q0 22 22 22h85q21 0 21 -22v-42zM927 491q22 0 22 -22v-42q0 -22 -22 -22h-85q-21 0 -21 22v42q0 22 21 22h85zM543 149q22 0 22 -21v-85q0 -22 -22 -22
h-42q-22 0 -22 22v85q0 21 22 21h42zM501 747q-22 0 -22 21v85q0 22 22 22h42q22 0 22 -22v-85q0 -21 -22 -21h-42z" />
    <glyph glyph-name="uniE9BA" unicode="&#xe9ba;" 
d="M833 670l-264 -307v-256l154 -43q17 -6 17 -26q-11 -17 -26 -17h-380q-19 0 -25 17q0 21 17 26l153 43v256l-268 307q-5 4 -5 13t6 15t16 6h293q-35 0 -59 -25q-25 -25 -25 -60t25 -60q25 -26 60 -26t60 25q25 26 25 61h-85l55 64q-30 21 -54 21h72l140 171h86l-141 -171
h136q9 0 17 -4q7 -7 7 -15q0 -9 -7 -15z" />
    <glyph glyph-name="uniE9BB" unicode="&#xe9bb;" 
d="M861 354v128h85v-128h-85zM755 822q-6 -18 -6 -35q0 -40 27 -67q41 -46 41 -116q0 -17 -3 -33h-64q6 30 6 42t-1 18q-3 14 -25 45q-23 32 -26 40q-15 37 -15 78q0 10 2 28h64zM882 567q3 17 3 32q0 16 -3 32q-2 14 -25 46t-26 39q-14 40 -14 78q0 19 1 28h69
q-6 -18 -6 -35q0 -39 27 -71q41 -47 41 -116q0 -17 -3 -33h-64zM95 678l60 59l604 -604l-60 -59l-280 280h-302q-22 0 -22 22v85q0 9 6 15t16 6h174zM657 354l-128 128h247v-128h-119z" />
    <glyph glyph-name="uniE9BC" unicode="&#xe9bc;" 
d="M861 354v128h85v-128h-85zM95 461q0 9 6 15t16 6h659v-128h-659q-10 0 -16 6t-6 15v86zM755 822q-6 -15 -6 -35q0 -41 27 -71q41 -48 41 -118l-3 -31h-64q6 22 6 46q0 12 -1 18q-2 14 -25 45q-23 32 -26 40q-15 33 -15 77l2 29h64zM908 716q41 -48 41 -118l-3 -31h-64
q2 17 2 36t-2 28q-2 14 -25 46t-26 39q-14 30 -14 77l2 29h63q-4 -13 -4 -33q0 -44 30 -73z" />
    <glyph glyph-name="uniE9BD" unicode="&#xe9bd;" 
d="M138 571q0 35 25 60q25 26 60 26t60 -25q26 -26 26 -61t-25 -60q-26 -25 -61 -25t-60 25t-25 60zM309 725q0 35 25 60t60 25t60 -25t25 -60t-25 -60q-25 -26 -60 -26t-60 25q-25 26 -25 61zM565 725q0 35 25 60t60 25t60 -25t25 -60t-25 -60q-25 -26 -60 -26t-60 25
q-25 26 -25 61zM735 571q0 35 25 60q26 26 61 26t60 -25q25 -26 25 -61t-25 -60t-60 -25t-60 25q-26 25 -26 60zM518 554q59 0 120 -43t103 -102q43 -60 70 -120t27 -96v-10q-10 -35 -34 -59q-25 -25 -60 -35q-22 -3 -226 -3t-226 3q-35 10 -59 34q-25 25 -35 60q-1 5 -1 17
q0 62 46 144q46 83 123 146q77 64 152 64z" />
    <glyph glyph-name="uniE9BE" unicode="&#xe9be;" 
d="M607 745q0 44 31 75q32 32 76 32t75 -31q32 -32 32 -76t-31 -75q-32 -31 -76 -31t-75 31q-32 31 -32 75zM262 745q-16 0 -27 13q-12 14 -12 30v21q0 19 13 31t30 12h4q113 0 192 -85l278 -273q-9 -9 -17 -9q-25 -17 -52 -17q-29 0 -51 17q-45 26 -80 26h-14
q-54 0 -94 -26q-23 -17 -51 -17q-29 0 -51 17q-2 1 -14 8t-20 9l111 107q13 13 13 30q0 16 -13 29l-13 13q-50 58 -132 64zM526 212q34 0 95 -32t91 -32h6q34 2 89 33t92 31h7v-107q-35 -4 -85 -29q-50 -26 -81 -30q-14 -2 -20 -2q-38 0 -99 30q-62 31 -93 31h-6
q-29 0 -84 -27q-55 -28 -82 -32q-16 -2 -22 -2q-41 0 -103 30q-63 31 -93 31v107q35 0 95 -32q61 -32 95 -32h6q34 0 95 32t97 32zM718 361q34 2 89 33t92 31h7v-106q-34 -5 -84 -30q-50 -26 -82 -30q-14 -2 -20 -2q-38 0 -99 31q-62 31 -93 31h-6q-29 0 -83 -28
q-55 -28 -83 -32q-16 -2 -22 -2q-41 0 -103 31q-63 31 -93 31v106q35 0 95 -32q61 -32 95 -32h6q34 0 95 32t97 32q34 0 95 -32t91 -32h6z" />
    <glyph glyph-name="uniE9BF" unicode="&#xe9bf;" 
d="M619 764q0 30 21 51t51 21t51 -21q22 -21 22 -51t-21 -51q-22 -22 -52 -22t-51 21q-21 22 -21 52zM935 482q14 -5 14 -20q0 -4 -2 -10l-21 -38q-8 -13 -21 -13q-8 0 -13 4l-107 60l-21 26v-73q4 -4 4 -8l149 -295q2 -3 2 -9q0 -15 -14 -21l-43 -21q-4 -4 -11 -4
q-15 0 -19 13l-124 247h-4l-34 -136q-2 -2 -4 -6q-2 -5 -4 -7l-111 -103q-11 -6 -19 -6t-16 6l-34 34q-6 11 -6 19q0 9 6 16l103 98q0 2 2 6t2 7l30 128v145l-38 -39q-9 -7 -9 -17v-89q-7 -22 -26 -22h-47q-25 0 -25 22v128q0 7 8 17l128 102q31 26 71 26q42 0 74 -26l9 -4
l72 -86q3 0 5 -2t4 -2zM184 725q0 18 12 30q13 13 30 13q18 0 30 -12q13 -13 13 -31q0 -17 -12 -29q-13 -13 -31 -13q-17 0 -29 12q-13 13 -13 30zM329 593l55 -30q9 -9 9 -34l-13 -25q-9 -11 -21 -5l-69 39l-13 17v-51l94 -184q0 -13 -8 -17l-26 -13q-17 0 -21 9l-77 153
l-21 -85l-5 -8l-72 -64q-15 -8 -21 0l-22 21q-7 14 0 21l60 60q4 4 4 8l22 81v94l-26 -21q-4 0 -4 -9v-55q0 -13 -13 -13h-30q-4 0 -8 3q-5 4 -5 10v81q0 4 5 9l76 64q5 4 13 4h73q2 0 6 -2t6 -2l47 -52z" />
    <glyph glyph-name="uniE9C0" unicode="&#xe9c0;" 
d="M608 148q0 35 25 60q26 26 61 26t60 -25q25 -26 25 -61t-25 -60t-60 -25t-60 25q-26 25 -26 60zM267 148q0 35 25 60q25 26 60 26t60 -25q26 -26 26 -61t-25 -60q-26 -25 -61 -25t-60 25t-25 60zM927 529q8 0 13 -5q6 -6 6 -14q0 -1 -2 -7l-42 -251q0 -6 -7 -11
q-8 -6 -15 -6h-678q-21 0 -21 21l-43 491h-21q-22 0 -22 21v43q0 9 6 15t16 6h85q21 0 21 -21v-17l39 -453q0 -21 21 -21h525q9 0 15 5q6 6 6 12l30 184q6 17 26 17z" />
    <glyph glyph-name="uniE9C1" unicode="&#xe9c1;" 
d="M283 346q-5 -3 -12 -3q-11 0 -18 7l-128 128q-6 6 -6 15q0 8 6 15l128 128q9 4 13 4q21 0 21 -21v-90h214l-86 -85h-128v-81q0 -13 -4 -17zM927 529v-85h-303l-328 -329l-60 60l606 606l60 -60l-192 -192h217z" />
    <glyph glyph-name="uniE9C2" unicode="&#xe9c2;" 
d="M842 875q7 0 14 -6q7 -7 7 -16v-810q0 -22 -21 -22h-171q-6 0 -13 5q-8 6 -8 12q-7 48 -43 79q-37 32 -85 32t-84 -31q-37 -32 -44 -80q0 -17 -21 -17h-171q-21 0 -21 22v810q0 22 21 22h171q6 0 13 -5q8 -6 8 -12q7 -48 43 -79q37 -32 85 -32q47 0 82 31q36 31 46 80
q0 6 7 11q8 6 14 6h171zM688 478q5 3 3 10t-11 7l-98 26l-56 89q-3 7 -8 7q-6 0 -9 -7l-55 -89l-98 -26q-4 0 -6 -7t1 -10l69 -81l-9 -107q0 -6 5 -11q6 -5 12 -2l94 39l94 -39q17 0 17 13l-9 107z" />
    <glyph glyph-name="uniE9C3" unicode="&#xe9c3;" 
d="M523 19q-54 0 -91 37t-37 91h256q0 -54 -36 -91q-37 -37 -92 -37zM852 279q14 -7 8 -17v-51q1 -2 1 -6q0 -15 -18 -15h-644q-17 0 -17 21v51q0 9 13 22l68 34h4v72q1 40 2 74q1 35 1 64q1 30 1 48q1 18 1 19q-1 3 -1 9q0 146 167 179v8q0 35 25 60q25 26 60 26t60 -25
q26 -26 26 -61v-8q77 -17 123 -63q47 -47 47 -121v-281h5zM694 275v324q0 32 -17 54t-45 31q-29 10 -54 14q-26 4 -55 4h-9q-7 1 -10 1q-70 0 -126 -40q-22 -22 -22 -55q0 -8 1 -13v-8q0 -2 -2 -124t-2 -188h341z" />
    <glyph glyph-name="uniE9C4" unicode="&#xe9c4;" 
d="M138 85v86h725v-86h-725zM859 764q89 -81 89 -177q0 -75 -52 -128q-53 -54 -127 -54q-4 0 -12 2q-9 3 -13 3l-8 -24q-6 -19 -10 -31t-15 -31q-11 -20 -23 -33q-13 -14 -34 -30q-22 -16 -48 -25q-26 -10 -64 -16q-38 -7 -84 -7q-61 0 -110 12t-82 30q-33 19 -57 47
q-25 28 -38 55q-13 28 -21 62q-8 35 -10 61q-2 27 -2 58v209q0 9 6 15t15 6h683q5 0 10 -2q6 -2 7 -2zM863 593v4q0 35 -24 58q-25 23 -61 23v-170h4q35 0 58 24q23 25 23 61z" />
    <glyph glyph-name="uniE9C5" unicode="&#xe9c5;" 
d="M829 819l120 -324v-410q0 -9 -6 -15t-16 -6h-85q-21 0 -21 21v43q0 21 -22 21h-554q-22 0 -22 -21v-43q0 -21 -21 -21h-85q-10 0 -16 6t-6 15v410l124 324q6 13 17 13h572q15 0 21 -13zM287 235q25 0 44 19q20 19 20 45t-19 45q-20 19 -45 19t-44 -19q-20 -19 -20 -45
t19 -45q20 -19 45 -19zM757 235q25 0 44 19q20 19 20 45t-19 45q-20 19 -45 19t-44 -19q-20 -19 -20 -45t19 -45q20 -19 45 -19zM202 533h640l-81 214h-478z" />
    <glyph glyph-name="uniE9C6" unicode="&#xe9c6;" 
d="M527 511q130 0 221 -85q7 -6 7 -15t-7 -15l-51 -51q-3 -7 -11 -7t-14 7q-62 53 -145 53q-81 0 -150 -53q-7 -7 -15 -7q-6 0 -15 7l-51 51q-6 6 -6 15t6 15q99 85 231 85zM190 520q-7 -7 -15 -7q-9 0 -15 7l-56 55q-7 7 -7 20q0 7 3 10q181 164 422 164q115 0 223 -40
q108 -41 195 -120q7 -6 7 -15q0 -8 -7 -15l-55 -55q-6 -6 -15 -6t-15 6q-139 124 -330 124q-195 0 -335 -128zM437 213q0 35 25 60t60 25t60 -25q26 -25 26 -60q0 -36 -25 -61q-26 -25 -61 -25t-60 25t-25 61z" />
    <glyph glyph-name="uniE9C7" unicode="&#xe9c7;" 
d="M932 499q16 -21 16 -45q0 -25 -16 -44q-20 -20 -44 -20q-15 0 -29 7q-13 -79 -60 -145q47 -16 47 -60q0 -25 -19 -44q-19 -20 -45 -20q-19 0 -36 12t-23 31q-39 -26 -60 -34l30 -116h-81l-26 90q-10 0 -32 -2t-32 -2q-43 0 -64 4l-26 -90h-81l30 111q-27 14 -55 34
q-15 -42 -60 -42q-26 0 -45 19q-19 20 -19 45q0 19 12 36t31 23q-49 71 -60 146q-12 -6 -28 -6q-27 0 -45 18q-19 21 -19 45t19 45q17 20 43 20q16 0 30 -7q30 94 60 136q-43 15 -43 60q0 28 19 46t45 18q45 0 60 -43q67 48 132 60q-7 11 -7 27q0 26 20 46q21 19 45 19
q25 0 44 -19q20 -16 20 -43q0 -16 -7 -30q76 -11 145 -60q14 47 60 47q26 0 45 -19q19 -20 19 -45v-3q1 -2 1 -3q0 -14 -22 -33t-22 -21t11 -24q12 -23 26 -56t19 -56q17 5 31 5q28 0 46 -18zM522 183q30 0 43 5l-43 162l-43 -162q13 -5 43 -5zM641 213q64 32 102 92
q39 61 39 133v10q0 109 -77 187q-78 78 -187 78t-187 -78t-78 -187q0 -76 38 -139q39 -63 103 -96l60 231v8q0 25 19 44q19 20 45 20t45 -19q19 -20 19 -45v-8z" />
    <glyph glyph-name="uniE9C8" unicode="&#xe9c8;" 
d="M854 108q10 -7 10 -17q0 -7 -6 -13l-34 -34q-6 -7 -15 -7q-8 0 -15 7l-77 76h-264q-115 4 -194 84q-79 81 -79 194v435q0 11 6 18q7 8 19 8h384q115 -4 194 -84q80 -81 80 -194v-294q0 -8 -9 -17q-10 -7 -19 -7q-8 0 -15 7l-269 273l-64 -64l337 -341z" />
    <glyph glyph-name="uniE9C9" unicode="&#xe9c9;" 
d="M833 516l26 -51q4 -4 4 -9q0 -13 -17 -17l-47 -34q-8 -8 -8 -17l4 -59q0 -22 -17 -22l-68 -13l-17 -38v-209q0 -9 -5 -13q-9 -9 -18 -9q-6 0 -11 5l-128 94q-14 6 -26 0l-128 -94q-4 -4 -13 -4q-21 0 -21 21v209l-17 38l-69 13q-6 0 -11 6q-6 7 -6 16l5 59q0 8 -9 17
l-43 30q-11 8 -11 19q0 7 3 11l26 51q5 11 0 22l-26 51q-5 5 -5 11q0 8 9 19l51 34q9 7 9 17l-4 60q0 21 17 21l59 13q13 0 13 13l26 51q9 18 25 13l56 -13q17 0 21 4l39 38q6 7 15 7q8 0 15 -7l46 -38q9 -4 22 -4l60 17q6 3 14 -1q8 -5 11 -12l26 -55q6 -13 17 -13l60 -13
q6 0 11 -6q6 -6 6 -15l-5 -60q0 -8 9 -17l47 -34q9 -11 9 -19q0 -6 -5 -11l-26 -51q-5 -11 0 -22zM518 303q92 0 159 66q67 67 67 160q0 90 -67 156t-159 66t-159 -68t-67 -158t66 -156q67 -66 160 -66zM646 567h4q6 -6 0 -12l-51 -60v-4l8 -77v-4q-4 -5 -12 -5l-69 30h-8
l-69 -30h-4q-8 0 -8 9l4 77v4l-47 60v4q0 8 4 8l73 22l4 4l38 64l5 4q8 0 13 -4l38 -64l4 -4z" />
    <glyph glyph-name="uniE9CA" unicode="&#xe9ca;" 
d="M253 747q13 0 21 -8q9 -9 9 -22v-414q0 -13 -8 -21q-9 -9 -22 -9h-128q-13 0 -21 8q-9 9 -9 22v414q0 13 8 21q9 9 22 9h128zM842 734q99 -131 107 -312q0 -65 -22 -145q-7 -21 -30 -21h-320q-12 0 -20 -8q-9 -8 -9 -18l4 -145q0 -20 -14 -33q-14 -14 -34 -14h-8
q-21 0 -37 13q-16 14 -22 34l-56 167v469q0 10 8 18t18 8h409q11 0 26 -13z" />
    <glyph glyph-name="uniE9CB" unicode="&#xe9cb;" 
d="M253 623q13 0 21 -8q9 -9 9 -22v-414q0 -13 -8 -21q-9 -9 -22 -9h-128q-13 0 -21 8q-9 9 -9 22v414q0 13 8 21q9 9 22 9h128zM932 623q17 -100 17 -149q-8 -181 -107 -312q-6 -13 -26 -13h-409q-12 0 -21 8t-9 18v469l60 167q3 19 20 33q18 14 39 14h8q19 0 32 -13
t16 -34v-141q0 -26 30 -26h320q22 0 30 -21z" />
    <glyph glyph-name="uniE9CC" unicode="&#xe9cc;" 
d="M424 875q134 0 229 -95q96 -96 99 -234q0 -137 -95 -232q-96 -96 -233 -96t-233 96q-96 97 -96 232t96 232t233 97zM424 303q99 0 171 72t72 171q0 102 -71 172q-72 71 -172 71q-102 0 -172 -71q-71 -72 -71 -172t70 -171q71 -72 173 -72zM940 98q9 -9 9 -17v-34
q0 -10 -8 -18t-18 -8h-34q-8 0 -17 9l-188 188q-6 6 -6 17q0 10 6 17l34 34q6 6 17 6t17 -6z" />
    <glyph glyph-name="uniE9CD" unicode="&#xe9cd;" 
d="M522 875q176 0 301 -125q126 -126 126 -302t-125 -301q-126 -126 -302 -126t-301 125q-126 126 -126 302t125 301q126 126 302 126zM565 256v77h-81v-77h81zM641 482q15 19 15 42q0 4 -2 18q0 53 -38 85q-35 30 -103 30q-42 0 -76 -21q-52 -38 -52 -103h82q0 23 12 43
q15 21 43 21q31 0 43 -17q12 -19 12 -38q0 -22 -12 -34q-7 -12 -17 -17l-22 -17q-29 -22 -34 -39q-8 -26 -8 -64h72q0 22 4 30q5 13 22 30l21 13z" />
    <glyph glyph-name="uniE9CE" unicode="&#xe9ce;" 
d="M522 875q176 0 301 -125q126 -126 126 -302t-125 -301q-126 -126 -302 -126t-301 125q-126 126 -126 302t125 301q126 126 302 126zM522 107q141 0 241 100t100 241t-100 241t-241 100t-241 -100t-100 -241t100 -241t241 -100zM620 627q35 -24 35 -77q0 -11 -1 -17
q0 -37 -17 -59q-3 -11 -38 -39l-22 -13q-15 -10 -21 -29q-4 -5 -4 -30h-73q0 35 9 64q9 18 34 38l21 17q4 2 7 5t6 7t4 5q13 19 13 34q0 20 -13 39q-10 17 -42 17q-28 0 -43 -22q-13 -20 -13 -42h-77q8 80 56 111q34 21 77 21q68 0 102 -30zM484 256v77h81v-77h-81z" />
    <glyph glyph-name="uniE9CF" unicode="&#xe9cf;" 
d="M522 875q176 0 301 -125q126 -126 126 -302t-125 -301q-126 -126 -302 -126t-301 125q-126 126 -126 302t125 301q126 126 302 126zM522 674q-20 0 -33 -13q-14 -14 -14 -34t13 -33q14 -14 34 -14t33 13q14 14 14 34t-13 33q-14 14 -34 14zM607 277v43h-30q-6 0 -7 1
t-1 8v213h-107l-4 -43l30 -8q8 0 8 -9v-149q0 -7 -1 -8t-7 -1l-26 -4v-43h145z" />
    <glyph glyph-name="uniE9D0" unicode="&#xe9d0;" 
d="M475 627q0 20 13 33q14 14 34 14t33 -13q14 -14 14 -34t-13 -33q-14 -14 -34 -14t-33 13q-14 14 -14 34zM569 329q0 -7 1 -8t7 -1h30v-43h-145v43l26 4q6 0 7 1t1 8v149q0 9 -8 9l-30 8l4 43h107v-213zM949 448q0 -176 -125 -301q-126 -126 -302 -126t-301 125
q-126 126 -126 302t125 301q126 126 302 126t301 -125q126 -126 126 -302zM863 448q0 141 -100 241t-241 100t-241 -100t-100 -241t100 -241t241 -100t241 100t100 241z" />
    <glyph glyph-name="uniE9D1" unicode="&#xe9d1;" 
d="M522 875q176 0 301 -125q126 -126 126 -302t-125 -301q-126 -126 -302 -126t-301 125q-126 126 -126 302t125 301q126 126 302 126zM565 192v85h-81v-85h81zM565 363v341h-86v-341h86z" />
    <glyph glyph-name="uniE9D2" unicode="&#xe9d2;" 
d="M522 875q176 0 301 -125q126 -126 126 -302t-125 -301q-126 -126 -302 -126t-301 125q-126 126 -126 302t125 301q126 126 302 126zM522 107q141 0 241 100t100 241t-100 241t-241 100t-241 -100t-100 -241t100 -241t241 -100zM479 363v341h86v-341h-86zM479 192v85h86
v-85h-86z" />
    <glyph glyph-name="uniE9D3" unicode="&#xe9d3;" 
d="M642 136l-281 290q-10 9 -10 21t10 21l281 290q10 10 22 10t21 -10q9 -9 9 -21v-580q0 -13 -8 -21q-9 -9 -22 -9t-22 9z" />
    <glyph glyph-name="uniE9D4" unicode="&#xe9d4;" 
d="M834 569l-290 -282q-10 -10 -21 -10t-21 10l-290 282q-10 9 -10 21t10 21q7 9 21 9h580q13 0 21 -8q9 -9 9 -22q0 -14 -9 -21z" />
    <glyph glyph-name="uniE9D5" unicode="&#xe9d5;" 
d="M403 759l281 -290q10 -9 10 -21t-10 -21l-281 -290q-10 -10 -22 -10t-21 10q-9 9 -9 21v580q0 13 8 21q9 9 22 9t22 -9z" />
    <glyph glyph-name="uniE9D6" unicode="&#xe9d6;" 
d="M211 329l290 281q9 10 21 10t21 -10l290 -281q10 -10 10 -22t-10 -21q-9 -9 -21 -9h-580q-13 0 -21 8q-9 9 -9 22t9 22z" />
    <glyph glyph-name="uniE9D7" unicode="&#xe9d7;" 
d="M522 875q176 0 301 -125q126 -126 126 -302t-125 -301q-126 -126 -302 -126t-301 125q-126 126 -126 302t125 301q126 126 302 126zM560 269l60 60l-124 119l120 119l-60 60l-179 -179l60 -60z" />
    <glyph glyph-name="uniE9D8" unicode="&#xe9d8;" 
d="M522 875q176 0 301 -125q126 -126 126 -302t-125 -301q-126 -126 -302 -126t-301 125q-126 126 -126 302t125 301q126 126 302 126zM522 107q141 0 241 100t100 241t-100 241t-241 100t-241 -100t-100 -241t100 -241t241 -100zM560 631l60 -59l-119 -120l119 -123
l-60 -60l-123 119l-60 64l60 60z" />
    <glyph glyph-name="uniE9D9" unicode="&#xe9d9;" 
d="M718 721l-273 -273l273 -269l-59 -60l-333 329l333 333z" />
    <glyph glyph-name="uniE9DA" unicode="&#xe9da;" 
d="M522 875q176 0 301 -125q126 -126 126 -302t-125 -301q-126 -126 -302 -126t-301 125q-126 126 -126 302t125 301q126 126 302 126zM582 363l119 119l-60 60l-119 -120l-119 120l-60 -60l179 -179z" />
    <glyph glyph-name="uniE9DB" unicode="&#xe9db;" 
d="M522 875q176 0 301 -125q126 -126 126 -302t-125 -301q-126 -126 -302 -126t-301 125q-126 126 -126 302t125 301q126 126 302 126zM522 107q141 0 241 100t100 241t-100 241t-241 100t-241 -100t-100 -241t100 -241t241 -100zM522 422l119 120l60 -60l-179 -179l-60 60
l-123 119l64 60z" />
    <glyph glyph-name="uniE9DC" unicode="&#xe9dc;" 
d="M795 644l60 -59l-333 -333l-333 333l60 59l273 -269z" />
    <glyph glyph-name="uniE9DD" unicode="&#xe9dd;" 
d="M522 875q176 0 301 -125q126 -126 126 -302t-125 -301q-126 -126 -302 -126t-301 125q-126 126 -126 302t125 301q126 126 302 126zM616 388l60 64l-60 60l-120 119l-59 -59l119 -124l-119 -119l59 -60z" />
    <glyph glyph-name="uniE9DE" unicode="&#xe9de;" 
d="M522 875q176 0 301 -125q126 -126 126 -302t-125 -301q-126 -126 -302 -126t-301 125q-126 126 -126 302t125 301q126 126 302 126zM522 107q141 0 241 100t100 241t-100 241t-241 100t-241 -100t-100 -241t100 -241t241 -100zM496 631l120 -119l60 -64l-60 -60
l-120 -119l-59 60l119 119l-119 124z" />
    <glyph glyph-name="uniE9DF" unicode="&#xe9df;" 
d="M326 721l59 60l333 -333l-333 -329l-59 60l273 269z" />
    <glyph glyph-name="uniE9E0" unicode="&#xe9e0;" 
d="M522 875q176 0 301 -125q126 -126 126 -302t-125 -301q-126 -126 -302 -126t-301 125q-126 126 -126 302t125 301q126 126 302 126zM646 358l55 64l-119 120l-60 60l-179 -184l60 -60l119 120z" />
    <glyph glyph-name="uniE9E1" unicode="&#xe9e1;" 
d="M522 875q176 0 301 -125q126 -126 126 -302t-125 -301q-126 -126 -302 -126t-301 125q-126 126 -126 302t125 301q126 126 302 126zM522 107q141 0 241 100t100 241t-100 241t-241 100t-241 -100t-100 -241t100 -241t241 -100zM522 602l60 -64l123 -120l-59 -60l-124 120
l-119 -120l-60 60z" />
    <glyph glyph-name="uniE9E2" unicode="&#xe9e2;" 
d="M795 252l-273 273l-273 -273l-60 64l333 328l333 -328z" />
    <glyph glyph-name="uniE9E3" unicode="&#xe9e3;" 
d="M202 448h209l-243 -243q-73 112 -73 243v8q0 173 121 294q122 121 297 125q128 0 248 -73l-81 -81q-74 47 -162 47q-131 0 -223 -94q-93 -94 -93 -226zM876 691q73 -112 73 -243q0 -129 -77 -239q-60 -89 -154 -138t-199 -49q-129 0 -236 72l81 81q74 -47 162 -47
q131 0 223 94q93 94 93 226h-209z" />
    <glyph glyph-name="uniE9E4" unicode="&#xe9e4;" 
d="M522 875q176 0 301 -125q126 -126 126 -302t-125 -301q-126 -126 -302 -126v98q137 0 235 98t98 235q0 138 -98 235q-98 98 -235 98t-235 -97q-98 -98 -98 -236q0 -84 39 -155q40 -71 106 -118l64 64q6 5 15 5q10 0 17 -6q7 -7 7 -16v-183q0 -22 -22 -22h-183q-9 0 -15 7
q-7 7 -7 15t5 12l51 52q-79 59 -125 148q-46 90 -46 193q0 176 125 301q126 126 302 126z" />
    <glyph glyph-name="uniE9E5" unicode="&#xe9e5;" 
d="M923 704q23 0 30 -21v-47q0 -9 -8 -15q-8 -7 -18 -7h-806q-26 0 -26 22v47q0 21 26 21h802zM923 491q23 0 30 -22v-47q0 -9 -8 -15t-18 -6h-806q-26 0 -26 21v47q0 22 26 22h802zM923 277q24 0 30 -21v-47q0 -9 -8 -15t-18 -6h-806q-26 0 -26 21v47q0 21 26 21h802z" />
    <glyph glyph-name="uniE9E6" unicode="&#xe9e6;" 
d="M522 875q176 0 301 -125q126 -126 126 -302t-125 -301q-126 -126 -302 -126t-301 125q-126 126 -126 302q0 177 124 302t303 125zM693 405v86h-342v-86h342z" />
    <glyph glyph-name="uniE9E7" unicode="&#xe9e7;" 
d="M522 875q176 0 301 -125q126 -126 126 -302t-125 -301q-126 -126 -302 -126t-301 125q-126 126 -126 302q0 177 124 302t303 125zM522 107q141 0 241 100t100 241t-100 241t-241 100t-241 -100t-100 -241t100 -241t241 -100zM351 405v86h342v-86h-342z" />
    <glyph glyph-name="uniE9E8" unicode="&#xe9e8;" 
d="M949 491v-86h-854v86h854z" />
    <glyph glyph-name="uniE9E9" unicode="&#xe9e9;" 
d="M522 875q179 0 303 -125t124 -302q0 -176 -125 -301q-126 -126 -302 -126t-301 125q-126 126 -126 302t125 301q126 126 302 126zM693 405v86h-128v128h-86v-128h-128v-86h128v-128h86v128h128z" />
    <glyph glyph-name="uniE9EA" unicode="&#xe9ea;" 
d="M522 875q179 0 303 -125t124 -302q0 -176 -125 -301q-126 -126 -302 -126t-301 125q-126 126 -126 302t125 301q126 126 302 126zM522 107q143 0 242 99q99 100 99 242q0 141 -100 241t-241 100t-241 -100t-100 -241t100 -241t241 -100zM565 619v-128h128v-86h-128v-128
h-86v128h-128v86h128v128h86z" />
    <glyph glyph-name="uniE9EB" unicode="&#xe9eb;" 
d="M949 491v-86h-384v-384h-86v384h-384v86h384v384h86v-384h384z" />
    <glyph glyph-name="uniE9EC" unicode="&#xe9ec;" 
d="M522 875q176 0 301 -125q126 -126 126 -302t-125 -301q-126 -126 -302 -126t-301 125q-126 126 -126 302t125 301q126 126 302 126zM671 358l-89 90l89 90l-59 59l-90 -89l-90 89l-59 -59l89 -90l-89 -90l59 -59l90 89l90 -89z" />
    </font>
</defs>
</svg>
